<svg xmlns="http://www.w3.org/2000/svg" viewBox="0 0 24.59 24.58"><defs><style>.cls-1{fill:#be0811;}</style></defs><title>icon-instagram-red</title><g id="Capa_2" data-name="Capa 2"><g id="FOOTER"><path class="cls-1" d="M7.12,0H17.48l.19,0a7.65,7.65,0,0,1,6.62,5.54c.14.5.2,1,.3,1.52V17.47L24.5,18a7.65,7.65,0,0,1-7.37,6.52c-3.21,0-6.43,0-9.64,0a6.71,6.71,0,0,1-2.86-.64A7.52,7.52,0,0,1,0,16.84c0-3,0-6.07,0-9.1,0-.26,0-.53,0-.79A7.65,7.65,0,0,1,5.5.33C6,.18,6.58.11,7.12,0ZM12.3,2.3H7.79a5.74,5.74,0,0,0-.93.06A5.37,5.37,0,0,0,2.32,7.75v9.09a4.8,4.8,0,0,0,.08.93,5.35,5.35,0,0,0,5.4,4.5h9a4.8,4.8,0,0,0,.93-.07,5.35,5.35,0,0,0,4.55-5.36c0-3,0-6.07,0-9.1A5.35,5.35,0,0,0,16.81,2.3Z"/><path class="cls-1" d="M6.16,12.27a6.14,6.14,0,1,1,6.12,6.16A6.15,6.15,0,0,1,6.16,12.27Zm6.15,3.86a3.84,3.84,0,1,0-3.85-3.85A3.85,3.85,0,0,0,12.31,16.13Z"/><path class="cls-1" d="M18.9,6.5a.81.81,0,0,1-.81-.83.83.83,0,0,1,.81-.81.85.85,0,0,1,.83.82A.83.83,0,0,1,18.9,6.5Z"/></g></g></svg>