<svg xmlns="http://www.w3.org/2000/svg" viewBox="0 0 65.47 70"><defs><style>.cls-1{fill:#be0811;}</style></defs><title>icon-ligth-red</title><g id="Capa_2" data-name="Capa 2"><g id="CÓMO_PARTICIPAR" data-name="CÓMO PARTICIPAR"><path class="cls-1" d="M46.48,40.41a22.54,22.54,0,0,0,.75-35.13,1,1,0,1,0-1.32,1.57,20.49,20.49,0,0,1-.68,31.94A5.53,5.53,0,0,0,43,43.21V45.3H38.29V42.89a2.12,2.12,0,0,0-2.12-2.12H36V38.29h1.23A3.29,3.29,0,1,0,34,35v1.24H31.5V35a3.3,3.3,0,1,0-3.29,3.29h1.23v2.48H29.3a2.12,2.12,0,0,0-2.12,2.12V45.3H22.44V43.21a5.59,5.59,0,0,0-2.2-4.43A20.48,20.48,0,0,1,33.45,2.06a20.15,20.15,0,0,1,9.11,2.5A1,1,0,0,0,44,4.15a1,1,0,0,0-.41-1.39,22.55,22.55,0,0,0-31,29.79A22.76,22.76,0,0,0,19,40.41a3.49,3.49,0,0,1,1.39,2.8v2.25a3.3,3.3,0,0,0,0,6.26v9.44a4.32,4.32,0,0,0,4.31,4.31H25A5.39,5.39,0,0,0,30.32,70h4.84a5.39,5.39,0,0,0,5.32-4.53h.3a4.32,4.32,0,0,0,4.31-4.31V51.72a3.3,3.3,0,0,0,0-6.26V43.21a3.49,3.49,0,0,1,1.39-2.8ZM36,35a1.24,1.24,0,1,1,1.23,1.24H36Zm-7.82,1.24A1.24,1.24,0,1,1,29.44,35v1.24Zm3.29,2H34v2.48H31.5Zm-2.27,4.6a.07.07,0,0,1,.07-.07h6.87a.07.07,0,0,1,.07.07V45.3h-7ZM43,54.36H29a1,1,0,1,0,0,2H43v2.48H22.44V56.41h2.47a1,1,0,1,0,0-2H22.44V51.88H43ZM35.16,68H30.32a3.35,3.35,0,0,1-3.24-2.48H38.39A3.35,3.35,0,0,1,35.16,68Zm5.62-4.53H24.69a2.26,2.26,0,0,1-2.25-2.26v-.22H43v.22a2.26,2.26,0,0,1-2.25,2.26Zm3.28-13.59H21.41a1.24,1.24,0,0,1,0-2.48H44.06a1.24,1.24,0,0,1,0,2.48Z"/><path class="cls-1" d="M6.58,22.54a1,1,0,0,0-1-1H1a1,1,0,1,0,0,2.05H5.56a1,1,0,0,0,1-1Z"/><path class="cls-1" d="M8.68,35.24,4.76,37.51a1,1,0,0,0,.51,1.91,1.08,1.08,0,0,0,.52-.13L9.71,37a1,1,0,0,0,.37-1.4,1,1,0,0,0-1.4-.38Z"/><path class="cls-1" d="M60.71,37.51l-3.92-2.27a1,1,0,0,0-1.4.38,1,1,0,0,0,.37,1.4l3.92,2.27a1.08,1.08,0,0,0,.52.13,1,1,0,0,0,.51-1.91Z"/><path class="cls-1" d="M64.44,21.52H59.91a1,1,0,0,0,0,2.05h4.53a1,1,0,1,0,0-2.05Z"/><path class="cls-1" d="M56.27,10a1.1,1.1,0,0,0,.52-.14l3.92-2.26a1,1,0,0,0-1-1.78L55.76,8.06A1,1,0,0,0,56.27,10Z"/><path class="cls-1" d="M4.76,7.58,8.68,9.84A1.1,1.1,0,0,0,9.2,10a1,1,0,0,0,.51-1.92L5.79,5.8a1,1,0,0,0-1,1.78Z"/><path class="cls-1" d="M32.73,13.59A3.29,3.29,0,1,0,36,16.88a3.3,3.3,0,0,0-3.3-3.29Zm0,4.53A1.24,1.24,0,1,1,34,16.88a1.24,1.24,0,0,1-1.24,1.24Z"/><path class="cls-1" d="M42.07,13.06,42,13l.73-1.22a2.15,2.15,0,0,0-.33-2.64L40.49,7.17a2.15,2.15,0,0,0-2.63-.32l-1.23.73-.08,0-.34-1.39a2.15,2.15,0,0,0-2.09-1.63H31.35a2.15,2.15,0,0,0-2.09,1.63l-.34,1.39-.09,0-1.22-.73A2.15,2.15,0,0,0,25,7.17L23,9.12a2.15,2.15,0,0,0-.33,2.64L23.43,13l0,.08L22,13.41a2.16,2.16,0,0,0-1.64,2.09v2.76A2.16,2.16,0,0,0,22,20.35l1.38.35,0,.08L22.7,22A2.15,2.15,0,0,0,23,24.64L25,26.59a2.15,2.15,0,0,0,2.63.32l1.22-.73.09,0,.34,1.38a2.15,2.15,0,0,0,2.09,1.63h2.77a2.15,2.15,0,0,0,2.09-1.63l.34-1.38.08,0,1.23.73a2.15,2.15,0,0,0,2.63-.32l1.95-1.95A2.15,2.15,0,0,0,42.77,22L42,20.78l0-.08,1.38-.35a2.16,2.16,0,0,0,1.64-2.09V15.5a2.16,2.16,0,0,0-1.64-2.09Zm1,5.2a.12.12,0,0,1-.08.11l-1.9.47a1,1,0,0,0-.72.66,8.07,8.07,0,0,1-.37.9,1,1,0,0,0,0,1l1,1.68a.1.1,0,0,1,0,.13l-2,1.95a.12.12,0,0,1-.13,0l-1.68-1a1,1,0,0,0-1,0c-.28.13-.58.26-.89.37a1,1,0,0,0-.66.72l-.48,1.9a.1.1,0,0,1-.1.08H31.35a.1.1,0,0,1-.1-.08l-.48-1.9a1,1,0,0,0-.66-.72c-.31-.11-.61-.24-.89-.37a1.06,1.06,0,0,0-.45-.11,1,1,0,0,0-.53.15l-1.68,1a.12.12,0,0,1-.13,0l-1.95-1.95a.1.1,0,0,1,0-.13l1-1.68a1,1,0,0,0,0-1,8.07,8.07,0,0,1-.37-.9,1,1,0,0,0-.72-.66l-1.9-.47a.12.12,0,0,1-.08-.11V15.5a.1.1,0,0,1,.08-.1l1.9-.48a1,1,0,0,0,.72-.66,8.07,8.07,0,0,1,.37-.9,1,1,0,0,0,0-1l-1-1.69a.1.1,0,0,1,0-.13l1.95-2a.12.12,0,0,1,.13,0l1.68,1a1,1,0,0,0,1,.05,6.4,6.4,0,0,1,.89-.37,1,1,0,0,0,.66-.73l.48-1.9a.1.1,0,0,1,.1-.08h2.77a.11.11,0,0,1,.1.08l.48,1.9a1,1,0,0,0,.66.73,6.4,6.4,0,0,1,.89.37,1,1,0,0,0,1-.05l1.68-1a.12.12,0,0,1,.13,0l2,2a.1.1,0,0,1,0,.13l-1,1.69a1,1,0,0,0,0,1,8.07,8.07,0,0,1,.37.9,1,1,0,0,0,.72.66l1.9.48a.1.1,0,0,1,.08.1Z"/></g></g></svg>