<svg xmlns="http://www.w3.org/2000/svg" viewBox="0 0 19.98 24.55"><defs><style>.cls-1{fill:#be0811;}</style></defs><title>icon-pinterest-red</title><g id="Capa_2" data-name="Capa 2"><g id="FOOTER"><path class="cls-1" d="M11.06,0c.46.06.92.11,1.37.2a9.33,9.33,0,0,1,5.84,3.42A8.08,8.08,0,0,1,20,9.33a9.82,9.82,0,0,1-1.72,5.11,7.48,7.48,0,0,1-6.75,3.41,4.27,4.27,0,0,1-2.56-1,8,8,0,0,1-.65-.65c-.13.46-.25.93-.39,1.4-.3,1-.55,2.05-.92,3a18,18,0,0,1-2.13,3.74.32.32,0,0,1-.22.14s-.13-.11-.14-.19a15.43,15.43,0,0,1-.18-5c.18-1,.48-2.05.74-3.08.37-1.51.75-3,1.11-4.53a.66.66,0,0,0,0-.37,4.92,4.92,0,0,1,0-4A2.66,2.66,0,0,1,8.62,5.75a1.84,1.84,0,0,1,1.91,1.87,5.59,5.59,0,0,1-.32,2c-.29,1-.6,2-.9,3a2.21,2.21,0,0,0,2.33,2.94,4.18,4.18,0,0,0,3.23-1.68,7.13,7.13,0,0,0,1.49-3.49,7.29,7.29,0,0,0-.47-4.2,5.58,5.58,0,0,0-4.41-3.37,7.65,7.65,0,0,0-4.72.51A6.31,6.31,0,0,0,2.88,9.11,4.72,4.72,0,0,0,4,12.4a.58.58,0,0,1,.16.53c-.14.52-.26,1-.4,1.55s-.24.46-.63.28a4.74,4.74,0,0,1-2.07-2,7.87,7.87,0,0,1,.07-8A8.83,8.83,0,0,1,6.7.48,12.53,12.53,0,0,1,9.29,0a1.85,1.85,0,0,0,.23,0Z"/></g></g></svg>