<svg xmlns="http://www.w3.org/2000/svg" viewBox="0 0 170.23 88.33"><defs><style>.cls-1{fill:#fff;}.cls-2{fill:none;stroke:#fff;stroke-miterlimit:10;stroke-width:0.98px;}</style></defs><title>icon-pc-goals-white</title><g id="Capa_2" data-name="Capa 2"><g id="CÓMO_PARTICIPAR" data-name="CÓMO PARTICIPAR"><path class="cls-1" d="M166.37,65.15H152.2V58.72a3.87,3.87,0,0,0-3.86-3.87H135.46a3.87,3.87,0,0,0-3.86,3.87V60H117.44a3.88,3.88,0,0,0-3.87,3.87V87.05a1.28,1.28,0,0,0,1.29,1.28H169a1.28,1.28,0,0,0,1.28-1.28V69a3.87,3.87,0,0,0-3.86-3.87ZM149.63,85.76H134.18V82.54a1.29,1.29,0,0,0-2.58,0v3.22H116.15V63.87a1.29,1.29,0,0,1,1.29-1.29H131.6V71a1.29,1.29,0,0,0,2.58,0V58.72a1.28,1.28,0,0,1,1.28-1.29h12.88a1.29,1.29,0,0,1,1.29,1.29Zm18,0H152.2v-18h14.17A1.29,1.29,0,0,1,167.66,69Z"/><path class="cls-1" d="M163.15,74.17a3.84,3.84,0,0,0-6.77-2.51,1.28,1.28,0,0,0,2,1.67,1.28,1.28,0,1,1,1.86,1.76,1.32,1.32,0,0,0-.38,1,1.28,1.28,0,0,0,.56.95,1.94,1.94,0,0,1-1.07,3.54,1.9,1.9,0,0,1-1.16-.4,1.29,1.29,0,0,0-1.57,2,4.44,4.44,0,0,0,2.73.93,4.51,4.51,0,0,0,3.48-7.35,3.8,3.8,0,0,0,.37-1.66Z"/><path class="cls-1" d="M126.45,75.46h-3.1c.28-.26.64-.54,1.05-.86,1.47-1.14,3.31-2.55,3.34-5.22a4.14,4.14,0,0,0-3-4.11,3.75,3.75,0,0,0-4.31,2,1.29,1.29,0,1,0,2.27,1.21,1.17,1.17,0,0,1,1.4-.72,1.53,1.53,0,0,1,1.1,1.58c0,1.32-.89,2.09-2.33,3.21S120,74.73,120,76.74A1.29,1.29,0,0,0,121.3,78h5.15a1.29,1.29,0,1,0,0-2.57Z"/><path class="cls-1" d="M143.33,70.3h-.14v-9a1.27,1.27,0,0,0-.64-1.11,1.29,1.29,0,0,0-1.29,0l-1.43.82a1.29,1.29,0,0,0-.47,1.76,1.3,1.3,0,0,0,1.26.64v6.9h-.14a1.29,1.29,0,0,0,0,2.58h2.85a1.29,1.29,0,0,0,0-2.58Z"/><path class="cls-1" d="M133.23,41.35l-.64,4.92a3.32,3.32,0,0,0,.27,2.08,3.35,3.35,0,0,0,3,1.87,3.31,3.31,0,0,0,1.46-.33l4.52-2.21,4.65,2.22a3.35,3.35,0,0,0,4.1-1,3.36,3.36,0,0,0,.64-2.47l-.7-5L154,37.81a3.32,3.32,0,0,0,.42-4.32,3.3,3.3,0,0,0-2.15-1.37l-5-.88-2.46-4.52h0a3.4,3.4,0,0,0-1.36-1.35A3.33,3.33,0,0,0,139,26.74l-2.37,4.45-5,.92a3.42,3.42,0,0,0-1.79.89,3.34,3.34,0,0,0-.09,4.72Zm-1.62-6.49a.68.68,0,0,1,.41-.2h0l5.61-1a1.35,1.35,0,0,0,.91-.66l2.66-5a.75.75,0,0,1,.44-.36.57.57,0,0,1,.22,0,.77.77,0,0,1,.36.09.75.75,0,0,1,.3.31L145.32,33a1.29,1.29,0,0,0,.91.66l5.57,1a.73.73,0,0,1,.49.31.76.76,0,0,1,.13.57.83.83,0,0,1-.23.42l-.06.06-3.88,4.1a1.25,1.25,0,0,0-.34,1.06l.78,5.6a.75.75,0,0,1-.15.56.73.73,0,0,1-.5.3.78.78,0,0,1-.43-.06l-5.21-2.49a1.29,1.29,0,0,0-1.12,0l-5.08,2.47a.75.75,0,0,1-1-.35.72.72,0,0,1-.06-.48s0-.07,0-.1l.74-5.57a1.32,1.32,0,0,0-.35-1.07l-3.93-4.07a.74.74,0,0,1-.21-.54.72.72,0,0,1,.23-.53Z"/><path class="cls-1" d="M121.75,24.81l5.08,2.93a1.29,1.29,0,1,0,1.29-2.23L123,22.58a1.29,1.29,0,1,0-1.29,2.23Z"/><path class="cls-1" d="M118,40.24h.18l5.81-.85a1.28,1.28,0,1,0-.37-2.54l-5.81.84a1.29,1.29,0,0,0,.19,2.56Z"/><path class="cls-1" d="M126.88,48.08l-4.15,4.15a1.29,1.29,0,1,0,1.82,1.82l4.15-4.15a1.27,1.27,0,0,0,0-1.82A1.29,1.29,0,0,0,126.88,48.08Z"/><path class="cls-1" d="M156.33,27.91a1.23,1.23,0,0,0,.64-.17l5.09-2.93a1.3,1.3,0,0,0,.47-1.76,1.28,1.28,0,0,0-1.76-.47l-5.08,2.93a1.28,1.28,0,0,0,.64,2.4Z"/><path class="cls-1" d="M158.69,37.92a1.28,1.28,0,0,0,1.09,1.46l5.8.85h.19a1.29,1.29,0,0,0,.19-2.56l-5.81-.84A1.27,1.27,0,0,0,158.69,37.92Z"/><path class="cls-1" d="M155.1,48.08a1.29,1.29,0,0,0,0,1.82l4.15,4.15a1.28,1.28,0,0,0,1.82,0,1.27,1.27,0,0,0,0-1.82l-4.15-4.15a1.29,1.29,0,0,0-1.82,0Z"/><path class="cls-1" d="M132.89,75.46a1.29,1.29,0,1,0,1.29,1.28h0A1.28,1.28,0,0,0,132.89,75.46Z"/><path class="cls-1" d="M71.35,75.71V36.6a1.18,1.18,0,0,0-1.18-1.18H20.49a1.18,1.18,0,1,0,0,2.36H69V74.53H11.58V37.78H15a1.18,1.18,0,1,0,0-2.36H10.4A1.18,1.18,0,0,0,9.22,36.6V75.71a1.18,1.18,0,0,0,1.18,1.18H70.17A1.18,1.18,0,0,0,71.35,75.71Z"/><path class="cls-1" d="M79.39,79.61h-3V34.69a4.37,4.37,0,0,0-4.36-4.36H8.49a4.37,4.37,0,0,0-4.36,4.36V79.61H1.18A1.18,1.18,0,0,0,0,80.79V84a4.36,4.36,0,0,0,4.36,4.36H76.21A4.36,4.36,0,0,0,80.57,84V80.79A1.18,1.18,0,0,0,79.39,79.61ZM78.21,84a2,2,0,0,1-2,2H4.36a2,2,0,0,1-2-2V82H66.49a1.18,1.18,0,0,0,0-2.36h-60V34.69a2,2,0,0,1,2-2H72.08a2,2,0,0,1,2,2V79.61H72A1.18,1.18,0,0,0,72,82h6.21Z"/><path class="cls-1" d="M40.29,62.78a1.06,1.06,0,1,0,0,2.12,1.06,1.06,0,0,0,0-2.12Z"/><path class="cls-1" d="M40.4,45.6a5.64,5.64,0,0,0-5.7,4.85,6.81,6.81,0,0,0-.05.78,1.18,1.18,0,0,0,2.36,0,3.55,3.55,0,0,1,0-.46,3.28,3.28,0,0,1,6.52.29,3.28,3.28,0,0,1-3.27,3.45,1.18,1.18,0,0,0-1.18,1.18v4.66a1.18,1.18,0,0,0,2.36,0v-3.6a5.71,5.71,0,0,0,2.91-1.64,5.63,5.63,0,0,0-4-9.51Z"/><path class="cls-1" d="M65.09,59.52a1.18,1.18,0,0,0,1.18-1.18V57a3.46,3.46,0,0,0-3.46-3.45H54.88a14.69,14.69,0,0,0-29.19,0H17.76A3.46,3.46,0,0,0,14.31,57V68.35a3.46,3.46,0,0,0,3.45,3.45H29.11a3.45,3.45,0,0,0,3.45-3.45V67.7A14.72,14.72,0,0,0,48,67.7v.65a3.46,3.46,0,0,0,3.45,3.45H62.81a3.46,3.46,0,0,0,3.46-3.45v-4.5a1.18,1.18,0,1,0-2.36,0v4.5a1.09,1.09,0,0,1-1.1,1.09H51.46a1.09,1.09,0,0,1-1.09-1.09V57a1.09,1.09,0,0,1,1.09-1.09H62.81A1.09,1.09,0,0,1,63.91,57v1.35a1.18,1.18,0,0,0,1.18,1.18ZM30.2,68.35a1.09,1.09,0,0,1-1.09,1.09H17.76a1.09,1.09,0,0,1-1.09-1.09V57a1.09,1.09,0,0,1,1.09-1.09H29.11A1.09,1.09,0,0,1,30.2,57ZM48,57v7.82a12.33,12.33,0,0,1-15.45,0V57a3.45,3.45,0,0,0-3.45-3.45h-1a12.33,12.33,0,0,1,24.44,0h-1A3.46,3.46,0,0,0,48,57Z"/><path class="cls-1" d="M61,58.86a1.17,1.17,0,0,0-1.67,0L57.14,61,55,58.86a1.18,1.18,0,1,0-1.67,1.66l2.15,2.15-2.15,2.15a1.18,1.18,0,0,0,.84,2,1.16,1.16,0,0,0,.83-.34l2.15-2.15,2.14,2.15a1.19,1.19,0,0,0,.84.34,1.16,1.16,0,0,0,.83-.34,1.18,1.18,0,0,0,0-1.67l-2.14-2.15L61,60.52a1.17,1.17,0,0,0,0-1.66Z"/><path class="cls-1" d="M22.45,65.92a1.18,1.18,0,0,1-.84-.35l-2.16-2.15a1.18,1.18,0,0,1,1.67-1.67l1.33,1.32,3.3-3.3a1.18,1.18,0,0,1,1.67,1.67l-4.14,4.13a1.18,1.18,0,0,1-.83.35Z"/><path class="cls-2" d="M41.77,25C52.34,9.65,73.14-.36,96.66.55a70.88,70.88,0,0,1,33.84,9.83"/><polygon class="cls-1" points="136.24 14.3 125.87 12.21 130.02 10.17 130.3 5.55 136.24 14.3"/></g></g></svg>