<svg xmlns="http://www.w3.org/2000/svg" viewBox="0 0 24.56 20.47"><defs><style>.cls-1{fill:#be0811;}</style></defs><title>Recurso 6</title><g id="Capa_2" data-name="Capa 2"><g id="FOOTER"><path class="cls-1" d="M0,9.32a1.74,1.74,0,0,1,1-.81l4.94-1.9L22.87.13A2,2,0,0,1,23.29,0a1,1,0,0,1,1.27,1.14,9.2,9.2,0,0,1-.24,1.56q-1.74,8.19-3.5,16.38a3.38,3.38,0,0,1-.28.81,1,1,0,0,1-1.21.51,2.46,2.46,0,0,1-.73-.35c-1.76-1.27-3.51-2.56-5.27-3.85l-.22-.16-.2.18-2.69,2.57a1.32,1.32,0,0,1-1,.39c0-.34,0-.68.07-1,.11-1.5.21-3,.33-4.5a.52.52,0,0,1,.16-.32L20,4.19a.16.16,0,0,0,.07-.07c.07-.11.13-.24.19-.36a1.39,1.39,0,0,0-.44-.07,1.34,1.34,0,0,0-.47.22L6.64,11.85a.46.46,0,0,1-.34.06L.9,10.23A1.41,1.41,0,0,1,0,9.61Z"/></g></g></svg>