<svg xmlns="http://www.w3.org/2000/svg" viewBox="0 0 62.99 70"><defs><style>.cls-1{fill:#be0811;}</style></defs><title>icon-goals-red</title><g id="Capa_2" data-name="Capa 2"><g id="CÓMO_PARTICIPAR" data-name="CÓMO PARTICIPAR"><path class="cls-1" d="M62.49,9.41l-3-2.63,3-2.64a1.47,1.47,0,0,0-1-2.58H49.14V1a1,1,0,1,0-2,0V14.86l-8.43,4.58a3.46,3.46,0,0,0-.33-1.08L37.14,16a3.25,3.25,0,0,0-4.36-1.41l-.92.47a3.24,3.24,0,0,0-1.41,4.37l1.19,2.32a3.19,3.19,0,0,0,1.17,1.27,9,9,0,0,0-1.24,3l-.22.79a1,1,0,0,0,.71,1.26.86.86,0,0,0,.28,0,1,1,0,0,0,1-.75l.22-.78c.45-1.58.73-2.43,1.61-2.91l1.57-.86.2-.1.19-.1,11.23-6.1A4.34,4.34,0,0,1,46.27,20L39,24.44l0,0-2.28,1.38a1,1,0,0,0,1,1.8l-1.72,5.21-1.26.52-3.43,1.4,1-3.49a1,1,0,1,0-2-.56l-1.56,5.52a.85.85,0,0,0,0,.23L28.24,44a3.46,3.46,0,0,1-.09,1.11l-4.53,9.54h-3.3a3.51,3.51,0,0,0-3.5,3.51v3a3.42,3.42,0,0,0-1.46-.32H7a3.5,3.5,0,0,0-3.5,3.5V68H1a1,1,0,1,0,0,2H61.52a1,1,0,0,0,0-2H58.85V41.5A3.51,3.51,0,0,0,55.34,38h-6.2V20.1a6.38,6.38,0,0,0,1-5.48,1,1,0,0,0-.59-.67,1,1,0,0,0-.44-.08V12H61.52a1.47,1.47,0,0,0,1-2.58ZM32.2,17.62a1.22,1.22,0,0,1,.59-.69l.92-.47a1.16,1.16,0,0,1,.54-.13,1.2,1.2,0,0,1,1.06.65L36.5,19.3a1.18,1.18,0,0,1-.39,1.52l-.34.19-.7.36a1.2,1.2,0,0,1-1.61-.52l-1.18-2.32a1.2,1.2,0,0,1-.08-.91ZM30.14,54.94a3.57,3.57,0,0,0-1.12-.3l1.12-1.5ZM35,46.67a3.79,3.79,0,0,0,.74-1.84c0-.13.54-2.89.54-2.89l.53.32a.1.1,0,0,1,.06.09L37.44,48H34ZM41.08,41l-.87,7H39.5l-.58-5.86a2.15,2.15,0,0,0-1.21-1.74l-1-.65L37.37,36l3,3.52c.6.78.81,1.1.75,1.54ZM30,46a5.59,5.59,0,0,0,.29-1.9l.37-6.84,4.74-1.95-.86,4.78a.06.06,0,0,1,0,0l-.71,3.95a3.79,3.79,0,0,1-.43,1.37l-6.93,9.2h-.57ZM5.54,64.27A1.45,1.45,0,0,1,7,62.82h8.37a1.46,1.46,0,0,1,1.46,1.45V68H5.54Zm13.33,0V58.13a1.45,1.45,0,0,1,1.45-1.45h8.37a1.45,1.45,0,0,1,1.45,1.45V68H18.87V64.27ZM56.8,41.5V68H45.52V61.8a1,1,0,1,0-2.05,0V68H32.19V51.52a1.45,1.45,0,0,1,1.45-1.45H42a1.45,1.45,0,0,1,1.45,1.45v5.14a1,1,0,1,0,2.05,0V41.5A1.45,1.45,0,0,1,47,40.05h8.37A1.46,1.46,0,0,1,56.8,41.5ZM47,38a3.5,3.5,0,0,0-3.5,3.5v6.83a3.66,3.66,0,0,0-1.19-.3l.84-6.77a4,4,0,0,0-1.16-3L37.9,33.4,40.35,26l6.74-4.09V38ZM49.14,9.94V3.61H60L57.65,5.67a1.47,1.47,0,0,0,0,2.21L60,9.94Z"/></g></g></svg>