<svg xmlns="http://www.w3.org/2000/svg" viewBox="0 0 40.61 35.33"><defs><style>.cls-1{fill:#be0811;}</style></defs><title>icon-bavaria-red</title><g id="Capa_2" data-name="Capa 2"><g id="FOOTER"><path class="cls-1" d="M3.39,29.71A3.33,3.33,0,0,1,5,30,1.15,1.15,0,0,1,5.73,31c0,.63-.53.9-1.21,1.07,1,.1,1.64.7,1.64,1.43a1.54,1.54,0,0,1-.81,1.3,3.43,3.43,0,0,1-2,.4H0v0c.56-.26.48-.72.48-1.17V30.9c0-.44.08-.91-.48-1.17v0Zm-.94,2.18a3,3,0,0,0,.42,0,.81.81,0,0,0,.83-.8A.65.65,0,0,0,3,30.49a2.47,2.47,0,0,0-.54.05Zm0,2.44a1.83,1.83,0,0,0,.71.1.91.91,0,0,0,1-.94c0-.63-.4-.92-1.26-.92H2.45Z"/><path class="cls-1" d="M8.2,33.55,8,34.12a1.92,1.92,0,0,0-.17.61c0,.23.17.34.35.46v0h-2v0a1.92,1.92,0,0,0,.67-1l1.35-3.34a2.74,2.74,0,0,0,.21-.67A.58.58,0,0,0,8,29.73v0h2.39L12.22,34a2.28,2.28,0,0,0,.84,1.17v0H10.12v0c.23-.12.4-.24.4-.51a.58.58,0,0,0-.08-.31l-.32-.82Zm.93-2.42h0l-.64,1.64H9.8Z"/><path class="cls-1" d="M14.15,35.33l-2-4.87a1.59,1.59,0,0,0-.47-.73v0h2.2v.07a3.67,3.67,0,0,0,.3.94l1.23,3.09,1.15-3a1.39,1.39,0,0,0,.14-.48c0-.28-.19-.43-.43-.56v0H18v0l-2.25,5.6Z"/><path class="cls-1" d="M19.2,33.55l-.24.57a2.22,2.22,0,0,0-.17.61c0,.23.17.34.35.46v0h-2v0a2,2,0,0,0,.67-1l1.34-3.34a2.74,2.74,0,0,0,.21-.67.58.58,0,0,0-.37-.49v0h2.39L23.23,34a2.21,2.21,0,0,0,.83,1.17v0H21.12v0c.23-.12.4-.24.4-.51a.58.58,0,0,0-.08-.31l-.32-.82Zm.93-2.42h0l-.64,1.64H20.8Z"/><path class="cls-1" d="M26.6,34c0,.44-.06.91.41,1.17v0H24.4v0c.47-.26.4-.73.4-1.17V30.91c0-.44.07-.92-.4-1.18v0h2.88a2.88,2.88,0,0,1,1.3.19,1.36,1.36,0,0,1,.87,1.27,1.54,1.54,0,0,1-1.16,1.33l1.16,1.66a3.88,3.88,0,0,0,.93,1L29,35.24a1.18,1.18,0,0,1-1.31-.56L26.6,32.86Zm0-3.5v1.89a1.14,1.14,0,0,0,1-1.06.82.82,0,0,0-.38-.71,1.11,1.11,0,0,0-.57-.12Z"/><path class="cls-1" d="M32.86,34c0,.44-.07.9.41,1.16v0H30.65v0c.48-.26.41-.72.41-1.16V30.91c0-.44.07-.92-.41-1.18v0h2.62v0c-.48.26-.41.74-.41,1.18Z"/><path class="cls-1" d="M35.74,33.55l-.23.57a1.94,1.94,0,0,0-.18.61c0,.23.18.34.35.46v0h-2v0a2,2,0,0,0,.67-1l1.34-3.34a2.77,2.77,0,0,0,.22-.67.6.6,0,0,0-.37-.49v0h2.38L39.77,34a2.17,2.17,0,0,0,.84,1.17v0H37.67v0c.22-.12.4-.24.4-.51a.58.58,0,0,0-.08-.31l-.32-.82Zm.94-2.42h0L36,32.77h1.33Z"/><path class="cls-1" d="M30.67,17c.33-.13,4.12-1.4,4.12-3.25,0-2.54-8.2-4.89-8.2-4.89l-6.68,3.28a23.36,23.36,0,0,0-8-3.28L3.18,13.32a14,14,0,0,1,8.05,2.53v8.67a19.32,19.32,0,0,1-8,1.74v.26H26.1c7.16,0,10.63-2.81,10.63-4.43S35.28,18.85,30.67,17Zm-10.75-3.7s5.45.46,5.45,2.91c0,1.84-5.45,2.56-5.45,2.56Zm0,11.79V19.59s7.63,1.23,7.63,4.33S19.92,25.07,19.92,25.07Z"/><path class="cls-1" d="M23,6.82l-.65-6h.09a.63.63,0,0,0,.63-.63V0H17.43a.78.78,0,0,0-.77.71h-.93a.76.76,0,0,0-.75.75l0,2.08a.72.72,0,0,1,.71-.72h1.41l.41.41H15.67v.3a.7.7,0,0,0,.7.71h1.06l-.29,2.48a1.92,1.92,0,0,1-2.89,1.4h0a5.43,5.43,0,0,0,3.41,1.19,6.15,6.15,0,0,0,2.25-.48,5.77,5.77,0,0,0,2.24.48,5.48,5.48,0,0,0,3.41-1.18,1.86,1.86,0,0,1-.81.19A1.76,1.76,0,0,1,23,6.82ZM18.49,2.05a.64.64,0,0,1-.64-.64h1.29A.65.65,0,0,1,18.49,2.05Zm7.07,6.08Z"/></g></g></svg>