<svg xmlns="http://www.w3.org/2000/svg" viewBox="0 0 398 61.92"><defs><style>.cls-1{fill:#be0811;}.cls-2{fill:#b3b3b3;}</style></defs><title>Recurso 8</title><g id="Capa_2" data-name="Capa 2"><g id="JUEGO"><path class="cls-1" d="M80.52,56.38l-13.42,0c-9.75,0-17.52-3.23-23.4-11.3-4-5.51-8.46-10.61-15.34-14.13C35.93,26.67,40.53,20,46,14.31,51.17,9,57.3,5.51,65,5.51c81.64,0,199.69,0,252.42,0H330.8c9.76,0,17.52,3.22,23.41,11.3,4,5.5,8.46,10.61,15.34,14.13-7.57,4.3-12.17,10.94-17.67,16.66-5.14,5.34-11.28,8.8-18.94,8.79C251.3,56.4,133.25,56.37,80.52,56.38Z"/><path class="cls-2" d="M375.69,27.68c-6.22-1.53-10.93-5.72-15-11.1S352.23,6.34,346.34,3.33A33.06,33.06,0,0,0,331.11.08h-1.62l-1.62,0C303.11.08,177.17.13,73.1,0H67c-12,0-20.92,5-28.22,14.51-4.56,5.91-9.71,11-16.7,12.91a22.26,22.26,0,0,1-3.27.64H0V34H18.84c1.11.06,2.25.15,3.38.24,6.22,1.52,10.93,5.71,15,11.1s8.41,10.24,14.31,13.24a33,33,0,0,0,15.22,3.25h1.63c.54,0,1.07,0,1.61,0,24.77,0,150.71-.07,254.77.05h6.08c12,0,20.92-5,28.22-14.5,4.59-6,9.77-11.08,16.82-13,1-.27,21-.47,22.08-.6V27.92C396.89,27.86,376.82,27.76,375.69,27.68ZM80.52,56.38l-13.42,0c-9.75,0-17.52-3.23-23.4-11.3-4-5.51-8.46-10.61-15.34-14.13C35.93,26.67,40.53,20,46,14.31,51.17,9,57.3,5.51,65,5.51c81.64,0,199.69,0,252.42,0H330.8c9.76,0,17.52,3.22,23.41,11.3,4,5.5,8.46,10.61,15.34,14.13-7.57,4.3-12.17,10.94-17.67,16.66-5.14,5.34-11.28,8.8-18.94,8.79C251.3,56.4,133.25,56.37,80.52,56.38Z"/></g></g></svg>