<svg xmlns="http://www.w3.org/2000/svg" xmlns:xlink="http://www.w3.org/1999/xlink" viewBox="0 0 45 47.84"><defs><style>.cls-1{fill:#b3b3b3;}.cls-2{clip-path:url(#clip-path);}.cls-3{fill:#666;}</style><clipPath id="clip-path"><circle class="cls-1" cx="22.5" cy="22.5" r="22.5"/></clipPath></defs><title>Recurso 5</title><g id="Capa_2" data-name="Capa 2"><g id="INICIO"><circle class="cls-1" cx="22.5" cy="22.5" r="22.5"/><g class="cls-2"><path class="cls-3" d="M22.5,47.83c-3.32,0-6.64,0-9.95,0a8.07,8.07,0,0,1-5.24-1.59,6.4,6.4,0,0,1-2.46-4.91,21.52,21.52,0,0,1,1.9-10.78,7.6,7.6,0,0,1,6.84-4.61A5.8,5.8,0,0,1,16,26.7a43.23,43.23,0,0,0,4.42,2.08,8.45,8.45,0,0,0,6.51-.8c.53-.27,1-.6,1.55-.92a6.12,6.12,0,0,1,8.09,1.07,11.77,11.77,0,0,1,2.83,5.28,24.39,24.39,0,0,1,.78,8,6.55,6.55,0,0,1-5.8,6.26,15.42,15.42,0,0,1-2.26.17C28.88,47.84,25.69,47.83,22.5,47.83Z"/><path class="cls-3" d="M32.41,15.6a10.21,10.21,0,1,1-20.41,0,10.21,10.21,0,1,1,20.41,0Z"/></g></g></g></svg>