<svg xmlns="http://www.w3.org/2000/svg" xmlns:xlink="http://www.w3.org/1999/xlink" viewBox="0 0 311.02 311.02"><defs><style>.cls-1,.cls-3{fill:none;}.cls-2{fill:#e7ecdf;stroke-miterlimit:10;stroke-width:0.97px;}.cls-2,.cls-3{stroke:#666;}.cls-3{stroke-linecap:round;stroke-linejoin:round;stroke-width:6.91px;}.cls-4{clip-path:url(#clip-path);}.cls-5{opacity:0.5;}.cls-6{fill:#6d6d71;}.cls-7{fill:#b3b3b3;}</style><clipPath id="clip-path"><circle class="cls-1" cx="154.81" cy="156.78" r="138.22"/></clipPath></defs><title>bg-clock</title><g id="Capa_2" data-name="Capa 2"><g id="JUEGO"><circle class="cls-2" cx="154.81" cy="156.78" r="138.22"/><circle class="cls-3" cx="154.81" cy="156.78" r="138.22"/><g class="cls-4"><g class="cls-5"><path class="cls-6" d="M154.18,45.15a2.52,2.52,0,0,1-2.54-2.48l-.48-40.13a2.51,2.51,0,0,1,5-.06l.48,40.13A2.51,2.51,0,0,1,154.18,45.15Z"/><path class="cls-6" d="M157.38,311a2.51,2.51,0,0,1-2.54-2.48l-.48-40.13a2.51,2.51,0,0,1,5-.06l.48,40.13A2.52,2.52,0,0,1,157.38,311Z"/><path class="cls-6" d="M308.54,156.18l-40.13.48a2.51,2.51,0,1,1-.06-5l40.13-.48a2.51,2.51,0,1,1,.06,5Z"/><path class="cls-6" d="M42.67,159.38l-40.13.48a2.51,2.51,0,1,1-.06-5l40.13-.48a2.51,2.51,0,0,1,.06,5Z"/><path class="cls-7" d="M89.88,55.86a2.5,2.5,0,0,1-2.15-1.16L71.27,28.81a2.51,2.51,0,0,1,4.24-2.69L92,52a2.5,2.5,0,0,1-.77,3.46A2.53,2.53,0,0,1,89.88,55.86Z"/><path class="cls-7" d="M237.61,288.22a2.49,2.49,0,0,1-2.14-1.16L219,261.17a2.51,2.51,0,0,1,4.23-2.69l16.46,25.89a2.51,2.51,0,0,1-.77,3.46A2.45,2.45,0,0,1,237.61,288.22Z"/><path class="cls-7" d="M258.75,93.46a2.51,2.51,0,0,1-1.37-4.63l25.88-16.46a2.51,2.51,0,0,1,2.7,4.24L260.07,93.06A2.46,2.46,0,0,1,258.75,93.46Z"/><path class="cls-7" d="M26.4,241.19A2.51,2.51,0,0,1,25,236.57L50.9,220.11a2.51,2.51,0,1,1,2.7,4.23L27.71,240.8A2.44,2.44,0,0,1,26.4,241.19Z"/><path class="cls-6" d="M48,100.75a2.58,2.58,0,0,1-1.23-.31l-27-14.63a2.51,2.51,0,0,1,2.39-4.41L49.16,96A2.52,2.52,0,0,1,48,100.75Z"/><path class="cls-6" d="M290,232.08a2.4,2.4,0,0,1-1.22-.3l-27-14.64a2.5,2.5,0,1,1,2.39-4.4l27,14.63a2.51,2.51,0,0,1-1.17,4.71Z"/><path class="cls-6" d="M213.87,51.57a2.46,2.46,0,0,1-1.23-.3,2.51,2.51,0,0,1-1-3.4l14.63-27a2.51,2.51,0,0,1,4.41,2.4L216,50.26A2.5,2.5,0,0,1,213.87,51.57Z"/><path class="cls-6" d="M82.53,293.58a2.45,2.45,0,0,1-1.22-.3,2.51,2.51,0,0,1-1-3.4l14.63-27a2.51,2.51,0,0,1,4.41,2.4l-14.63,27A2.51,2.51,0,0,1,82.53,293.58Z"/><path class="cls-7" d="M130.08,37.76a.85.85,0,0,1-.83-.66l-6.37-30a.83.83,0,0,1,1.63-.35l6.38,30a.84.84,0,0,1-.65,1Z"/><path class="cls-7" d="M187.28,307.1a.82.82,0,0,1-.82-.66l-6.38-30a.85.85,0,0,1,.65-1,.83.83,0,0,1,1,.65l6.37,30a.83.83,0,0,1-.64,1Z"/><path class="cls-7" d="M275.16,132a.82.82,0,0,1-.82-.66.83.83,0,0,1,.64-1L305,124a.85.85,0,0,1,1,.65.83.83,0,0,1-.64,1l-30,6.37A.5.5,0,0,1,275.16,132Z"/><path class="cls-7" d="M5.82,189.22a.84.84,0,0,1-.18-1.66l30-6.37a.84.84,0,0,1,1,.64.85.85,0,0,1-.65,1L6,189.2Z"/><path class="cls-7" d="M118.62,40.78a.86.86,0,0,1-.81-.59l-9.24-29.25a.83.83,0,0,1,1.59-.5l9.25,29.25a.84.84,0,0,1-.55,1.05A.67.67,0,0,1,118.62,40.78Z"/><path class="cls-7" d="M201.61,303.32a.82.82,0,0,1-.8-.58l-9.25-29.25a.84.84,0,1,1,1.6-.5l9.24,29.24a.83.83,0,0,1-.54,1A.69.69,0,0,1,201.61,303.32Z"/><path class="cls-7" d="M272.15,120.55a.82.82,0,0,1-.81-.58.84.84,0,0,1,.54-1l29.25-9.25a.84.84,0,0,1,.51,1.6l-29.25,9.25A1,1,0,0,1,272.15,120.55Z"/><path class="cls-7" d="M9.6,203.55a.84.84,0,0,1-.26-1.64l29.25-9.24a.83.83,0,1,1,.5,1.59L9.84,203.51A1,1,0,0,1,9.6,203.55Z"/><path class="cls-7" d="M142,35.27c-.42,0-.79,0-.84-.46L137.77,4.46a.77.77,0,0,1,.74-.85.86.86,0,0,1,.92.77l3.39,30.23c.05.46-.28.66-.74.66Z"/><path class="cls-7" d="M172.38,309.5a.82.82,0,0,1-.84-.74l-3.39-30.49a.83.83,0,0,1,.75-.92.85.85,0,0,1,.92.74l3.38,30.48a.84.84,0,0,1-.74.93Z"/><path class="cls-7" d="M277.09,141.55c-.43,0-.8.87-.85.44s.28-.27.74-.33l30.49-3.08a1,1,0,0,1,.92.88c.05.46-.28-.24-.74-.19l-30.48,2.28Z"/><path class="cls-7" d="M3.42,174.25a.8.8,0,0,1-.84-.71.82.82,0,0,1,.73-.91l30.5-3.38a.86.86,0,0,1,.92.74.81.81,0,0,1-.74.9L3.5,174.25Z"/><path class="cls-7" d="M97.64,49.64a.84.84,0,0,1-.75-.44l-14.51-27A.86.86,0,0,1,82.72,21a.83.83,0,0,1,1.13.35l14.51,27A.83.83,0,0,1,98,49.54.9.9,0,0,1,97.64,49.64Z"/><path class="cls-7" d="M227.86,292.24a.8.8,0,0,1-.74-.44l-14.51-27a.84.84,0,0,1,.34-1.13.83.83,0,0,1,1.13.34l14.51,27a.83.83,0,0,1-.34,1.13A.81.81,0,0,1,227.86,292.24Z"/><path class="cls-7" d="M263.29,99.57a.85.85,0,0,1-.75-.44.83.83,0,0,1,.34-1.13l27-14.52A.84.84,0,0,1,290.7,85l-27,14.51A.86.86,0,0,1,263.29,99.57Z"/><path class="cls-7" d="M20.68,229.79a.83.83,0,0,1-.75-.44.84.84,0,0,1,.34-1.13l27-14.51a.84.84,0,0,1,.8,1.48l-27,14.51A.92.92,0,0,1,20.68,229.79Z"/><path class="cls-7" d="M107.69,44.82a.83.83,0,0,1-.78-.52l-12-28.23a.84.84,0,1,1,1.54-.65l12,28.23a.84.84,0,0,1-.45,1.1A1.16,1.16,0,0,1,107.69,44.82Z"/><path class="cls-7" d="M215.29,298.27a.83.83,0,0,1-.78-.51l-12-28.23a.85.85,0,0,1,.45-1.1.83.83,0,0,1,1.09.44l12,28.24a.83.83,0,0,1-.45,1.09A.7.7,0,0,1,215.29,298.27Z"/><path class="cls-7" d="M268.11,109.62a.84.84,0,0,1-.34-1.61L296,96a.84.84,0,0,1,1.1.44.85.85,0,0,1-.44,1.1l-28.24,12A.7.7,0,0,1,268.11,109.62Z"/><path class="cls-7" d="M14.65,217.22a.84.84,0,0,1-.33-1.61l28.23-12a.83.83,0,1,1,.65,1.53L15,217.15A.71.71,0,0,1,14.65,217.22Z"/><path class="cls-7" d="M196.81,42.28a1,1,0,0,1-.29-.05.84.84,0,0,1-.51-1.07l10.36-28.88a.85.85,0,0,1,1.07-.5.84.84,0,0,1,.51,1.07L197.59,41.72A.86.86,0,0,1,196.81,42.28Z"/><path class="cls-7" d="M103.82,301.45a1,1,0,0,1-.3-.05.84.84,0,0,1-.5-1.07l10.36-28.87A.84.84,0,1,1,115,272l-10.37,28.87A.84.84,0,0,1,103.82,301.45Z"/><path class="cls-7" d="M299.52,209.1a.79.79,0,0,1-.3,0L270.35,198.7a.84.84,0,0,1,.57-1.58l28.87,10.36a.83.83,0,0,1-.27,1.62Z"/><path class="cls-7" d="M40.35,116.11a1,1,0,0,1-.3,0L11.18,105.7a.84.84,0,1,1,.57-1.57l28.87,10.36a.84.84,0,0,1-.27,1.62Z"/><path class="cls-7" d="M185.48,38.82l-.22,0a.85.85,0,0,1-.61-1L192.17,8a.84.84,0,0,1,1.63.42l-7.52,29.74A.84.84,0,0,1,185.48,38.82Z"/><path class="cls-7" d="M118,305.77l-.21,0a.85.85,0,0,1-.61-1L124.69,275a.83.83,0,1,1,1.62.4l-7.51,29.74A.84.84,0,0,1,118,305.77Z"/><path class="cls-7" d="M303.84,194.92a.75.75,0,0,1-.21,0l-29.74-7.51a.84.84,0,1,1,.41-1.62L304,193.28a.83.83,0,0,1-.19,1.64Z"/><path class="cls-7" d="M36.89,127.44a.5.5,0,0,1-.21,0L6.93,119.9a.84.84,0,0,1,.41-1.62l29.74,7.52a.84.84,0,0,1,.61,1A.82.82,0,0,1,36.89,127.44Z"/><path class="cls-7" d="M205.79,45.91a.74.74,0,0,1-.35-.08.83.83,0,0,1-.42-1.1l12.62-28a.83.83,0,0,1,1.52.69l-12.61,28A.85.85,0,0,1,205.79,45.91Z"/><path class="cls-7" d="M92.58,296.9a.71.71,0,0,1-.35-.07.84.84,0,0,1-.42-1.11l12.61-28a.84.84,0,0,1,1.11-.41.82.82,0,0,1,.41,1.1l-12.61,28A.82.82,0,0,1,92.58,296.9Z"/><path class="cls-7" d="M295,220.33a.63.63,0,0,1-.36-.07l-28-12.61a.83.83,0,1,1,.69-1.52l28,12.61a.83.83,0,0,1-.33,1.59Z"/><path class="cls-7" d="M44,107.13a.78.78,0,0,1-.36-.08l-28-12.61a.83.83,0,1,1,.69-1.52l28,12.61a.84.84,0,0,1-.33,1.6Z"/><path class="cls-7" d="M163,35.27h-.06a.81.81,0,0,1-.79-.87L164,3.8a.86.86,0,0,1,.89-.78.84.84,0,0,1,.78.89l-1.88,30.6A.81.81,0,0,1,163,35.27Z"/><path class="cls-7" d="M146.14,305.05h-.06c-.46,0-.81,2.13-.78,1.66l1.88-29.34c0-.46.41-.17.89-.14s.81.74.78,1.2L147,306.66C146.94,307.1,146.58,305.05,146.14,305.05Z"/><path class="cls-7" d="M308.22,166.07h-.06l-30.62-1.52c-.45,0-.81-.25-.78-.71a.77.77,0,0,1,.88-.69l30.62,1.91c.47,0,.82.1.79.56S308.66,166.07,308.22,166.07Z"/><path class="cls-7" d="M33.39,149.72h-.06L2.71,148a.79.79,0,0,1-.79-.83.85.85,0,0,1,.89-.75l30.62,1.89a.73.73,0,1,1,0,1.45Z"/><path class="cls-7" d="M174.05,36.5h-.13a.83.83,0,0,1-.7-1l4.65-30.32a.83.83,0,1,1,1.65.25L174.87,35.8A.82.82,0,0,1,174.05,36.5Z"/><path class="cls-7" d="M132.28,308.67h-.14a.85.85,0,0,1-.7-1l4.66-30.32a.82.82,0,0,1,1-.7.83.83,0,0,1,.7.95L133.1,308A.85.85,0,0,1,132.28,308.67Z"/><path class="cls-7" d="M306.74,180.64h-.14L276.28,176a.83.83,0,0,1-.7-.95.81.81,0,0,1,.95-.7L306.85,179a.83.83,0,0,1-.11,1.66Z"/><path class="cls-7" d="M34.58,138.87l-.14,0L4.12,134.2a.83.83,0,1,1,.25-1.65l30.32,4.65a.84.84,0,0,1-.11,1.67Z"/><path class="cls-7" d="M246.66,75.85a.84.84,0,0,1-.56-1.46L269,53.93a.86.86,0,0,1,1.19.07.84.84,0,0,1-.07,1.18L247.21,75.64A.81.81,0,0,1,246.66,75.85Z"/><path class="cls-7" d="M41.46,259.45A.83.83,0,0,1,40.9,258l22.86-20.46a.85.85,0,0,1,1.18.07.83.83,0,0,1-.07,1.18L42,259.24A.85.85,0,0,1,41.46,259.45Z"/><path class="cls-7" d="M257.52,271.45a.83.83,0,0,1-.63-.27l-20.45-22.86a.84.84,0,0,1,1.24-1.12l20.46,22.86a.83.83,0,0,1-.07,1.18A.81.81,0,0,1,257.52,271.45Z"/><path class="cls-7" d="M73.92,66.26a.86.86,0,0,1-.64-.28L52.83,43.12a.84.84,0,0,1,.06-1.18.85.85,0,0,1,1.19.06L74.53,64.86A.84.84,0,0,1,74.47,66,.8.8,0,0,1,73.92,66.26Z"/><path class="cls-7" d="M238.34,67.41a.84.84,0,0,1-.62-1.4l20.77-22.57a.84.84,0,1,1,1.23,1.13L239,67.14A.84.84,0,0,1,238.34,67.41Z"/><path class="cls-7" d="M51.87,270a.84.84,0,0,1-.62-1.4L72,246a.84.84,0,1,1,1.23,1.13L52.48,269.74A.82.82,0,0,1,51.87,270Z"/><path class="cls-7" d="M268.08,261.05a.86.86,0,0,1-.58-.22l-22.56-20.77a.83.83,0,1,1,1.12-1.23l22.57,20.77a.82.82,0,0,1,.05,1.18A.84.84,0,0,1,268.08,261.05Z"/><path class="cls-7" d="M65.48,74.58a.83.83,0,0,1-.57-.22L42.33,53.59a.85.85,0,0,1,0-1.19.84.84,0,0,1,1.18,0L66,73.13a.84.84,0,0,1,0,1.18A.92.92,0,0,1,65.48,74.58Z"/><path class="cls-7" d="M253.37,84a.84.84,0,0,1-.51-1.51l24.54-18.4a.84.84,0,0,1,1,1.34l-24.55,18.4A.79.79,0,0,1,253.37,84Z"/><path class="cls-7" d="M33.08,249.22a.82.82,0,0,1-.68-.34.84.84,0,0,1,.16-1.17l24.54-18.4a.84.84,0,0,1,1.17.17.83.83,0,0,1-.16,1.17l-24.54,18.4A.83.83,0,0,1,33.08,249.22Z"/><path class="cls-7" d="M247.29,279.84a.82.82,0,0,1-.68-.33L228.21,255a.83.83,0,0,1,.17-1.17.81.81,0,0,1,1.16.17L248,278.51a.83.83,0,0,1-.17,1.17A.82.82,0,0,1,247.29,279.84Z"/><path class="cls-7" d="M82.1,59.55a.83.83,0,0,1-.67-.33L63,34.67a.83.83,0,0,1,.17-1.17.84.84,0,0,1,1.17.17l18.4,24.55a.84.84,0,0,1-.16,1.17A.93.93,0,0,1,82.1,59.55Z"/><path class="cls-7" d="M221.26,54.27a.81.81,0,0,1-.45-.13.83.83,0,0,1-.26-1.16L237,27.12a.84.84,0,1,1,1.41.9L222,53.88A.81.81,0,0,1,221.26,54.27Z"/><path class="cls-7" d="M73.23,286.44a.72.72,0,0,1-.46-.13.83.83,0,0,1-.25-1.15L89,259.3a.84.84,0,0,1,1.16-.26.83.83,0,0,1,.25,1.15L73.93,286.06A.83.83,0,0,1,73.23,286.44Z"/><path class="cls-7" d="M284.52,239.69a.84.84,0,0,1-.46-.13l-25.87-16.5a.83.83,0,0,1,.9-1.4L285,238.15a.83.83,0,0,1,.25,1.15A.85.85,0,0,1,284.52,239.69Z"/><path class="cls-7" d="M52.34,91.66a.84.84,0,0,1-.46-.13L26,75a.83.83,0,0,1-.26-1.15.85.85,0,0,1,1.16-.26l25.86,16.5A.83.83,0,0,1,53,91.27.81.81,0,0,1,52.34,91.66Z"/><path class="cls-7" d="M229.4,59.94a.87.87,0,0,1-.51-.17.84.84,0,0,1-.16-1.18l18.53-24.44a.84.84,0,1,1,1.33,1L230.06,59.6A.85.85,0,0,1,229.4,59.94Z"/><path class="cls-7" d="M63.06,279.36a.84.84,0,0,1-.68-1.34l18.53-24.44a.83.83,0,1,1,1.33,1L63.71,279A.83.83,0,0,1,63.06,279.36Z"/><path class="cls-7" d="M277.43,249.86a.84.84,0,0,1-.52-.16l-24.44-18.54a.84.84,0,0,1,1-1.33l24.44,18.53a.84.84,0,0,1,.17,1.17A.82.82,0,0,1,277.43,249.86Z"/><path class="cls-7" d="M58,83.52a.83.83,0,0,1-.52-.17L33.05,64.82a.84.84,0,0,1,1-1.34L58.5,82a.83.83,0,0,1,.16,1.17A.82.82,0,0,1,58,83.52Z"/></g></g></g></g></svg>