<svg xmlns="http://www.w3.org/2000/svg" xmlns:xlink="http://www.w3.org/1999/xlink" viewBox="0 0 125.94 112.23"><defs><style>.cls-1{fill:none;}.cls-2{fill:#be0811;}.cls-3{fill:#fff;}.cls-4{clip-path:url(#clip-path);}.cls-5{fill:#ebb22a;stroke:#272525;stroke-miterlimit:10;stroke-width:0.25px;}.cls-6{fill:#d15b30;}.cls-7{fill:#b9babd;}.cls-8{fill:#6b4e2f;}.cls-9{fill:#f0c7a3;}.cls-10{fill:#39281c;}.cls-11{fill:#eaad73;}.cls-12{fill:#e38f51;}.cls-13{stroke:#000;stroke-linecap:round;stroke-linejoin:round;stroke-width:0.41px;}</style><clipPath id="clip-path"><circle class="cls-1" cx="62.14" cy="64.01" r="46.22"/></clipPath></defs><title>Recurso 2</title><g id="Capa_2" data-name="Capa 2"><g id="INGRESO"><path class="cls-2" d="M88.54,28.1a8.16,8.16,0,0,1-4,1.24h0a4.43,4.43,0,0,1-4.16-2.27c-.93.54-2.13,1.19-3.39,1.77C74.29,35,70.74,41.21,64.89,41.21a4.16,4.16,0,0,1-3.3-1.44,4.57,4.57,0,0,1-.79-4c.58-3,3.2-5.28,5.91-6.9a3.65,3.65,0,0,1-1.6-1.56,9.23,9.23,0,0,1-5.16,2,3.73,3.73,0,0,1-2.82-1.12,3.39,3.39,0,0,1-.29-.38,8.62,8.62,0,0,1-4.45,1.5A3,3,0,0,1,49,26.13l-.9-.11-.32.06-.19.48a4.38,4.38,0,0,1-4.13,2.78,3.46,3.46,0,0,1-2.14-.68l-.75-.59.59-1.45-.83-.05a4.35,4.35,0,0,1-4.11,2.77,3.56,3.56,0,0,1-1.62-.4,46.2,46.2,0,1,0,53.93-.84Z"/><path class="cls-3" d="M101.4,50.27A36.34,36.34,0,0,1,103.34,57a38.39,38.39,0,0,1,0,14.07,36.11,36.11,0,0,1-2,6.76.21.21,0,0,1-.27.12.22.22,0,0,1-.12-.26A47.91,47.91,0,0,0,102.51,71a43.07,43.07,0,0,0,.53-6.9,44.2,44.2,0,0,0-.51-6.89A46.63,46.63,0,0,0,101,50.41a.21.21,0,0,1,.14-.26A.21.21,0,0,1,101.4,50.27Z"/><path class="cls-3" d="M23.58,79.59A41.3,41.3,0,0,1,21.39,73a41.76,41.76,0,0,1-1-6.94,34.44,34.44,0,0,1,0-3.52c0-1.17.15-2.34.25-3.5A39.27,39.27,0,0,1,22,52.11c.3-1.14.75-2.23,1.14-3.33s.89-2.17,1.44-3.21a38.18,38.18,0,0,1,3.65-6,40,40,0,0,1,4.62-5.27,44.84,44.84,0,0,1,5.44-4.39.2.2,0,0,1,.29,0,.22.22,0,0,1,0,.28A43.35,43.35,0,0,0,28.91,40,42.43,42.43,0,0,0,25.41,46c-.54,1-.94,2.09-1.39,3.15s-.81,2.15-1.1,3.26A41.78,41.78,0,0,0,21.24,66,42.74,42.74,0,0,0,24,79.44a.2.2,0,0,1-.12.26A.21.21,0,0,1,23.58,79.59Z"/><path d="M20.67,93.53a2.68,2.68,0,0,0-.49,2,.19.19,0,0,0,.1.13.17.17,0,0,0,.2-.1,6.86,6.86,0,0,0,.47-2,.22.22,0,0,0-.06-.15A.16.16,0,0,0,20.67,93.53Z"/><path d="M12.17,72.64a2.69,2.69,0,0,0-1.12,1.77.17.17,0,0,0,0,.15.16.16,0,0,0,.22,0,6.62,6.62,0,0,0,1.07-1.69.14.14,0,0,0,0-.16A.15.15,0,0,0,12.17,72.64Z"/><path d="M10,65.41a7,7,0,0,0,1.29-1.54.18.18,0,0,0,0-.16.15.15,0,0,0-.21-.07,2.78,2.78,0,0,0-1.34,1.61.2.2,0,0,0,0,.16A.16.16,0,0,0,10,65.41Z"/><path d="M11.84,48.09a7,7,0,0,0,1.57-1.24.16.16,0,0,0-.15-.27,2.74,2.74,0,0,0-1.64,1.3.15.15,0,0,0,0,.16A.17.17,0,0,0,11.84,48.09Z"/><path d="M5.18,57a.18.18,0,0,0,.16,0,.16.16,0,0,0,.08-.21,2.77,2.77,0,0,0-1.54-1.41.15.15,0,0,0-.16,0,.16.16,0,0,0,0,.22A7.29,7.29,0,0,0,5.18,57Z"/><path d="M6.17,84a.15.15,0,0,0,.06.21A6.52,6.52,0,0,0,8.06,85a.22.22,0,0,0,.16,0,.17.17,0,0,0,0-.23,2.74,2.74,0,0,0-1.91-.84A.16.16,0,0,0,6.17,84Z"/><path d="M21.6,33.13a.17.17,0,0,0,.1-.12.16.16,0,0,0-.13-.18,2.75,2.75,0,0,0-2,.54.14.14,0,0,0-.06.15.15.15,0,0,0,.18.13A6.82,6.82,0,0,0,21.6,33.13Z"/><path d="M107.82,88.89a.16.16,0,0,0-.11.19,6.66,6.66,0,0,0,.67,1.89.16.16,0,0,0,.14.09.16.16,0,0,0,.16-.15,2.74,2.74,0,0,0-.7-2A.18.18,0,0,0,107.82,88.89Z"/><path d="M115.44,69.11a.15.15,0,0,0,.1-.19,2.69,2.69,0,0,0-1.29-1.64.2.2,0,0,0-.17,0,.16.16,0,0,0,0,.22,7,7,0,0,0,1.24,1.57A.16.16,0,0,0,115.44,69.11Z"/><path d="M114.36,58.22a.18.18,0,0,0-.16,0,.16.16,0,0,0,0,.22,6.59,6.59,0,0,0,1.44,1.4.18.18,0,0,0,.16,0,.16.16,0,0,0,.08-.21A2.73,2.73,0,0,0,114.36,58.22Z"/><path d="M110.27,41.54a.16.16,0,0,0,0,.22,7.28,7.28,0,0,0,1.7,1.07.16.16,0,0,0,.19-.24,2.73,2.73,0,0,0-1.76-1.11A.17.17,0,0,0,110.27,41.54Z"/><path d="M119.55,51a7,7,0,0,0,1.33-1.49.17.17,0,0,0,0-.17.16.16,0,0,0-.21-.07,2.76,2.76,0,0,0-1.39,1.57.2.2,0,0,0,0,.16A.16.16,0,0,0,119.55,51Z"/><path d="M121.36,78.16a.15.15,0,0,0,.07-.15.16.16,0,0,0-.18-.13,2.72,2.72,0,0,0-1.81,1,.15.15,0,0,0,0,.16.16.16,0,0,0,.21.08A6.5,6.5,0,0,0,121.36,78.16Z"/><path d="M125.8,69.68a.15.15,0,0,0-.16.14A54.07,54.07,0,0,1,123.13,83a34.47,34.47,0,0,1-2.37,5.43,51,51,0,0,0,3.84-13.5,68.93,68.93,0,0,0,.61-8.6s.06-.09.06-.14a67.88,67.88,0,0,0-.73-15.92,51.65,51.65,0,0,0-5.32-15,.15.15,0,0,0-.2-.06.16.16,0,0,0-.07.21,51.1,51.1,0,0,1,5.12,14.93,54.53,54.53,0,0,1,.68,6.75c-.11-1-.2-2-.35-3a60,60,0,0,0-6.65-19.73c-.92-1.65-1.94-3.25-3-4.81,0,0,0,0,0,0a38,38,0,0,0-4.1-6A29.2,29.2,0,0,0,105.88,19a2.94,2.94,0,0,1,.14.53,28.54,28.54,0,0,1,4.28,4.16c.44.54.83,1.13,1.24,1.7A46.94,46.94,0,0,0,106,20c0,.12,0,.26,0,.4.47.4,1,.78,1.41,1.19h0a5.58,5.58,0,0,0-2.12,4.27,8.32,8.32,0,0,0,.45,2.73c-.87-1-1.82-1.88-2.75-2.8a6.94,6.94,0,0,1-1,.6c.56.55,1.14,1.09,1.69,1.66-.26-.12-.51-.25-.77-.35a5.59,5.59,0,0,0-4.75.49h0l0,0-1.26-.94-.66-.07c.66.49,1.31,1,2,1.51.48.51.88,1.06,1.39,1.65a26.49,26.49,0,0,0-3.71-2.71.15.15,0,0,0-.21.06.15.15,0,0,0,0,.2,32,32,0,0,1,6.24,5.14c.86.89,1.7,1.82,2.52,2.76.06.13.12.23.19.36a4.28,4.28,0,0,0,.94,1.07c.37.48.75,1,1.1,1.44a39.45,39.45,0,0,1,1.92,3.85s0,.05,0,.08,0,.08.06.12a46.56,46.56,0,0,1,2.22,6.4c0,.47.11.93.19,1.45a4.42,4.42,0,0,0,.36,1.12c.13.59.28,1.18.38,1.77s.15,1.23.23,1.84c0-.21-.09-.42-.13-.63a72.22,72.22,0,0,0-2.51-8.84.15.15,0,0,0-.2-.08.16.16,0,0,0-.08.2,71.49,71.49,0,0,1,2.24,8.84,53.45,53.45,0,0,1,1.2,9v0h0s0,0,0,.07c0,.61,0,1.21,0,1.81s-.16,1.34-.24,2.1a4.44,4.44,0,0,0,.06.8c-.09.75-.2,1.49-.34,2.23a67.46,67.46,0,0,1-2.72,9.92l.15-.51a83.09,83.09,0,0,0,2-9.22.15.15,0,0,0-.3,0A82.11,82.11,0,0,1,109,80.12c-.67,2.32-1.43,4.62-2.3,6.86-.06.11-.1.22-.16.33v0h0s0,.07,0,.1c-.2.5-.36,1-.58,1.52h0a.22.22,0,0,0,0,.08,4.61,4.61,0,0,0-.18,2.53,6.6,6.6,0,0,0,1.1,2.33,12.3,12.3,0,0,0,.77,1l.42.46a1.06,1.06,0,0,1,.15.15c-.42.59-.79,1.23-1.24,1.8l-.08.1,0,0a1.24,1.24,0,1,0,2,1.45c.53-.73,1-1.51,1.44-2.26.1.19.27.15.41.2l.62.11a10.22,10.22,0,0,0,1.24.13,6.69,6.69,0,0,0,2.56-.32,4.58,4.58,0,0,0,2.11-1.57c.34-.48.63-.93.93-1.36a33.55,33.55,0,0,0,5.57-10.68,53.7,53.7,0,0,0,2.26-13.29A.14.14,0,0,0,125.8,69.68Zm-4.76,16a5.7,5.7,0,0,0-4.69.43,8.09,8.09,0,0,0-1.51,1.14q.93-2.5,1.64-5.08c.14.18.3.1.45.12l.62,0a10.6,10.6,0,0,0,1.25-.13,6.53,6.53,0,0,0,2.43-.84,4.61,4.61,0,0,0,1.75-2l.06-.15A50.83,50.83,0,0,1,121,85.64Zm-6-22.72a10.72,10.72,0,0,0,1.06.56l.55.23c.12,0,.23.11.37.07,0,1.88,0,3.76-.18,5.64a6.93,6.93,0,0,0-.34-1,5.5,5.5,0,0,0-3.23-3c0-.52,0-1,0-1.56,0,0,0,0,0-.08s0-.32,0-.48c0-.39,0-.79,0-1.17s0-.53,0-.79A6.45,6.45,0,0,0,115.07,62.92ZM113,57.06a4.87,4.87,0,0,1,3.12,2.22,7.37,7.37,0,0,1,.89,2.28c0,.21,0,.43,0,.64l-.28-.1a9.9,9.9,0,0,1-.93-.44,6.18,6.18,0,0,1-1.58-1.19,3.14,3.14,0,0,1-.85-1.68C113.23,58.26,113.14,57.65,113,57.06Zm.32,9a5,5,0,0,1,2.7,2.58,8,8,0,0,1,.61,3.07l-.36-.19a7.62,7.62,0,0,1-.87-.56A6.21,6.21,0,0,1,114,69.59a3.2,3.2,0,0,1-.61-1.78c0-.34,0-.72-.07-1.1C113.28,66.5,113.29,66.29,113.29,66.08Zm8.76,12.69a3.41,3.41,0,0,1-1.47,1.33,6.43,6.43,0,0,1-2,.56,7.64,7.64,0,0,1-1.08.07H117a8.39,8.39,0,0,1,2.15-2.54,5.1,5.1,0,0,1,3.91-1C122.7,77.73,122.38,78.3,122.05,78.77Zm1.85-4c-.1.64-.26,1.26-.38,1.9a5.73,5.73,0,0,0-4.7,1,8.51,8.51,0,0,0-1.64,1.7c.43-2,.75-4,1-6.08.14.14.28.06.42.07l.6-.07a9.67,9.67,0,0,0,1.17-.23,6.22,6.22,0,0,0,2.27-1,4.39,4.39,0,0,0,1.5-2c.13-.38.23-.71.33-1.06C124.35,70.93,124.18,72.86,123.9,74.77Zm-5.26-2.9a8.18,8.18,0,0,1,1.76-2.55A4.92,4.92,0,0,1,124,68.06c-.32.53-.58,1.09-.86,1.56A3.17,3.17,0,0,1,121.87,71a6.33,6.33,0,0,1-1.84.7,9,9,0,0,1-1,.15Zm5.7-13a71.37,71.37,0,0,1,.17,8.65,5.52,5.52,0,0,0-4.5,1.38,8,8,0,0,0-1.58,2,63,63,0,0,0,.15-7.27h0c.23.33.39.18.57.17l.58-.15a9.38,9.38,0,0,0,1.13-.38,6.32,6.32,0,0,0,2.11-1.3,4.42,4.42,0,0,0,1.22-2.22C124.25,59.4,124.3,59.13,124.34,58.84ZM119,62.25a7.9,7.9,0,0,1,1.41-2.77,4.9,4.9,0,0,1,3.42-1.72c-.25.56-.44,1.15-.65,1.65A3.16,3.16,0,0,1,122.08,61a6.43,6.43,0,0,1-1.74.93,8.07,8.07,0,0,1-1,.29Zm3.72-13.75c.45,1.85.84,3.71,1.12,5.6.14,1,.22,2,.33,3a5.54,5.54,0,0,0-4.22,2,8.39,8.39,0,0,0-1.46,2.67c0-.56,0-1.13-.09-1.69-.14-1.76-.35-3.51-.63-5.26a1.49,1.49,0,0,0,.3-.09l.56-.21a11.94,11.94,0,0,0,1.09-.51,6.25,6.25,0,0,0,1.94-1.53,4.44,4.44,0,0,0,1-2.34C122.66,49.55,122.68,49,122.71,48.5Zm-5,4.76a7.92,7.92,0,0,1,1.13-2.93,4.88,4.88,0,0,1,3.2-2.09c-.18.58-.3,1.19-.45,1.71a3.24,3.24,0,0,1-.91,1.65A6.44,6.44,0,0,1,119,52.72a9.06,9.06,0,0,1-1,.41Zm2-14a59.83,59.83,0,0,1,2.78,8.26h0A5.57,5.57,0,0,0,118.33,50a8.11,8.11,0,0,0-1,2.35,56.16,56.16,0,0,0-1.69-6.64c.14,0,.24-.08.35-.12l.52-.29a9.6,9.6,0,0,0,1-.66,6.27,6.27,0,0,0,1.71-1.8,4.41,4.41,0,0,0,.61-2.45C119.75,40,119.71,39.64,119.67,39.29Zm-4.31,4.9a8.09,8.09,0,0,1,.69-3.06,4.93,4.93,0,0,1,2.87-2.54c-.1.61-.13,1.22-.2,1.76a3.2,3.2,0,0,1-.67,1.77,6.18,6.18,0,0,1-1.44,1.34,8,8,0,0,1-.88.54Zm-.23-10.14a4.41,4.41,0,0,0,.06-2.54c-.14-.45-.28-.86-.41-1.26.92,1.38,1.79,2.79,2.58,4.24.61,1.12,1.13,2.27,1.66,3.43a5.49,5.49,0,0,0-3.5,2.95,8,8,0,0,0-.71,2.73c-.4-1-.77-2.07-1.23-3.08s-1-2-1.55-3c.32.16.4,0,.55-.12L113,37a9.88,9.88,0,0,0,.84-.87A6.28,6.28,0,0,0,115.13,34.05Zm-1.25-.47a6.12,6.12,0,0,1-1.11,1.63,10,10,0,0,1-.75.71l-.32.27a8.09,8.09,0,0,1,0-3.14A4.92,4.92,0,0,1,114,30c0,.61.15,1.22.19,1.76A3.12,3.12,0,0,1,113.88,33.58Zm-.11-4.7.21.35a5.58,5.58,0,0,0-2.85,3.69,8.17,8.17,0,0,0-.09,2.83,48.88,48.88,0,0,0-4-5.52c.33.08.37-.12.49-.23l.36-.48a9.71,9.71,0,0,0,.64-1,6.22,6.22,0,0,0,.82-2.33,4.42,4.42,0,0,0-.45-2.5c-.28-.52-.56-1-.82-1.45A48.08,48.08,0,0,1,113.77,28.88Zm-6.37-6.49c.16.59.38,1.16.54,1.69a3.12,3.12,0,0,1,.11,1.88,6.19,6.19,0,0,1-.76,1.82,9.8,9.8,0,0,1-.58.85l-.27.32a8.2,8.2,0,0,1-.61-3.07A4.86,4.86,0,0,1,107.4,22.39Zm-8.55,6.12a4.88,4.88,0,0,1,3.82-.24,7.93,7.93,0,0,1,2.63,1.63l0,0-.38.13c-.34.1-.67.18-1,.25a6.26,6.26,0,0,1-2,.07,3.16,3.16,0,0,1-1.72-.77C99.8,29.28,99.35,28.87,98.85,28.51Zm3.29,4.29c-.82-.83-1.69-1.61-2.57-2.37a4.41,4.41,0,0,0,1.55,1A32.77,32.77,0,0,1,103.45,34a.4.4,0,0,0,0,.19l0,0a1.29,1.29,0,0,1,.09.16C103.11,33.85,102.64,33.31,102.14,32.8Zm-.2-1.08a6.69,6.69,0,0,0,2.23,0,11,11,0,0,0,1.17-.24l.58-.17c.13-.06.3,0,.37-.24.9,1.11,1.73,2.25,2.52,3.43-.14-.1-.26-.21-.41-.3a5.51,5.51,0,0,0-4.6-.51C103.21,33,102.57,32.37,101.94,31.72Zm3.51,3.84c-.37-.41-.73-.91-1.15-1.36a4.91,4.91,0,0,1,3.8.54,7.91,7.91,0,0,1,2.22,2.1l0,.06L110,37c-.34,0-.69,0-1,0a6.42,6.42,0,0,1-2-.33A3.15,3.15,0,0,1,105.45,35.56ZM108.19,40h-.08s-.07.06-.1.09c-.18-.35-.39-.68-.58-1,0,0,0-.06,0-.08s-.15-.18-.22-.28-.28-.51-.43-.76a6.91,6.91,0,0,0,2.06.44q.6,0,1.2,0l.6,0c.13,0,.27,0,.38-.13.49.92,1,1.82,1.41,2.77.06.14.11.29.17.43A5.58,5.58,0,0,0,108.19,40Zm.54.59A4.85,4.85,0,0,1,112.31,42a7.26,7.26,0,0,1,1,1.36c.16.4.32.81.47,1.22l-.17,0a9.13,9.13,0,0,1-1-.19,6.06,6.06,0,0,1-1.83-.74,3.2,3.2,0,0,1-1.25-1.41C109.28,41.72,109,41.16,108.73,40.63ZM111.11,48c-.32-1.1-.65-2.21-1-3.28a6.47,6.47,0,0,0,2.19,1,9.82,9.82,0,0,0,1.17.26l.59.09c.11,0,.23,0,.34,0,.46,1.46.87,2.94,1.21,4.43-.09-.13-.16-.27-.26-.39A5.55,5.55,0,0,0,111.11,48Zm.37.65a4.93,4.93,0,0,1,3.35,1.85,7.65,7.65,0,0,1,1.09,2c0,.26.1.53.14.8l-.29-.08a8.68,8.68,0,0,1-1-.33,6.2,6.2,0,0,1-1.7-1,3.17,3.17,0,0,1-1-1.57C111.87,49.81,111.71,49.22,111.48,48.65Zm.94,4.72-.09-.37a6.71,6.71,0,0,0,1.89,1.24,10.79,10.79,0,0,0,1.12.43l.57.17c.14,0,.27.12.43,0,.23,1.55.4,3.1.52,4.65-.08-.17-.16-.35-.26-.52a5.5,5.5,0,0,0-3.77-2.56C112.71,55.39,112.6,54.38,112.42,53.37ZM112.81,71c0-.2.06-.4.09-.6a6.45,6.45,0,0,0,1.58,1.74c.32.25.65.48,1,.69l.52.31c.14.05.23.21.45.1-.23,1.6-.52,3.18-.86,4.75a9,9,0,0,0-.25-1,5.74,5.74,0,0,0-3.07-3.36C112.44,72.75,112.65,71.88,112.81,71Zm-.74,3.49a2.21,2.21,0,0,1,.05-.25,5.13,5.13,0,0,1,2.64,3,8.23,8.23,0,0,1,.38,2.76l-.15.46-.26-.17a9.42,9.42,0,0,1-.86-.67A6.19,6.19,0,0,1,112.53,78a3.38,3.38,0,0,1-.48-1.92C112,75.58,112.07,75,112.07,74.48ZM111.15,78a3.61,3.61,0,0,0,.19.64,6.54,6.54,0,0,0,1.55,2.06c.31.28.63.55,1,.8l.51.36.17.11c-.37,1.19-.75,2.36-1.19,3.52a8,8,0,0,0-.12-1.07,5.73,5.73,0,0,0-2.84-3.91C110.66,79.63,110.91,78.79,111.15,78Zm-1,5.07c.06-.57.19-1.21.25-1.86a5.13,5.13,0,0,1,2.28,3.33,8,8,0,0,1,0,2.59c-.09.21-.17.42-.25.62l-.23-.19c-.27-.25-.52-.51-.76-.78A6.44,6.44,0,0,1,110.32,85,3.36,3.36,0,0,1,110.11,83ZM109,94.22l-.33-.33c-.25-.27-.48-.54-.7-.83a6.63,6.63,0,0,1-1-1.82,3.41,3.41,0,0,1-.07-2c.08-.42.2-.88.31-1.34,0,0,.11-.06.14-.12l.11-.24a5.11,5.11,0,0,1,1.86,3.35A8.49,8.49,0,0,1,109,94.22Zm.89-1.42a8,8,0,0,0,0-2,5.71,5.71,0,0,0-2.2-3.84c.42-.86.82-1.73,1.18-2.61a4.34,4.34,0,0,0,.15,1,6.54,6.54,0,0,0,1.27,2.25,10.4,10.4,0,0,0,.84.92l.45.43a1.46,1.46,0,0,1,.19.16C111.23,90.42,110.58,91.63,109.9,92.8ZM117,93.87c-.2.21-.4.42-.59.6a3.38,3.38,0,0,1-1.71,1,6.71,6.71,0,0,1-2.07.14,9.5,9.5,0,0,1-1.07-.15l-.46-.11a8.33,8.33,0,0,1,2.62-2,5.12,5.12,0,0,1,3.73-.25C117.26,93.32,117.13,93.61,117,93.87Zm.75-1.34a5.76,5.76,0,0,0-4.28.24,8.16,8.16,0,0,0-1.46.92c.6-1.12,1.17-2.25,1.67-3.41l.22,0,.62.06a10.38,10.38,0,0,0,1.25,0,6.72,6.72,0,0,0,2.53-.51,4.37,4.37,0,0,0,1.41-1C119.09,90.12,118.42,91.33,117.72,92.53Zm1.68-5a3.3,3.3,0,0,1-1.63,1.12,6.52,6.52,0,0,1-2,.29,9.79,9.79,0,0,1-1.08-.07l-.4-.06.06-.15a8.32,8.32,0,0,1,2.34-2.09,5.08,5.08,0,0,1,4-.44C120.19,86.61,119.8,87.13,119.4,87.55Z"/><path d="M24.14,32.11s0,0,0,0h0a5.57,5.57,0,0,0-4.77,0c-.25.13-.49.28-.72.43.81-1.05,1.64-2.1,2.54-3.09h0a.57.57,0,0,0-.86-.76,52.35,52.35,0,0,0-3.66,4.6,8.23,8.23,0,0,0,.16-2.76,5.55,5.55,0,0,0-2.56-4h0c.25-.29.53-.55.78-.83a2.85,2.85,0,0,1-.16-.3,48.16,48.16,0,0,0-4.36,5.32c.34-.61.66-1.24,1-1.82a28.77,28.77,0,0,1,3.19-3.94c0-.12-.07-.24-.1-.38a29.14,29.14,0,0,0-3.44,4.08,38.67,38.67,0,0,0-3.44,6.44h0s0,0,0,0c-.91,1.66-1.76,3.35-2.5,5.09A59.91,59.91,0,0,0,.68,60.51c-.05,1,0,2,0,3.06a52.89,52.89,0,0,1,0-6.78A50.67,50.67,0,0,1,4.14,41.4a.16.16,0,0,0-.09-.2.15.15,0,0,0-.19.09A51.42,51.42,0,0,0,.14,56.75a68.38,68.38,0,0,0,.94,15.91h0a.29.29,0,0,0,.08.13,67.64,67.64,0,0,0,1.5,8.49,51.41,51.41,0,0,0,5.24,13A34.88,34.88,0,0,1,5,89.16,53.62,53.62,0,0,1,1.1,76.36a.15.15,0,0,0-.17-.12.15.15,0,0,0-.13.17,54.46,54.46,0,0,0,3.64,13,33.77,33.77,0,0,0,6.66,10c.34.4.68.82,1.07,1.26A4.63,4.63,0,0,0,14.44,102a6.56,6.56,0,0,0,2.57,0,12,12,0,0,0,1.22-.26l.6-.18c.14-.06.31,0,.39-.24.56.7,1.07,1.43,1.68,2.1l0,0a1.24,1.24,0,0,0,1.77-1.73l-.08-.08c-.51-.52-.95-1.11-1.42-1.67a.93.93,0,0,1,.13-.15l.37-.5a11.68,11.68,0,0,0,.66-1.06,6.62,6.62,0,0,0,.85-2.44,4.57,4.57,0,0,0-.45-2.51.12.12,0,0,0,0-.08c-.27-.46-.49-1-.74-1.44,0,0,0-.07,0-.1l0,0c-.06-.1-.12-.21-.19-.31-1.1-2.14-2.09-4.34-3-6.58A82.11,82.11,0,0,1,15.68,76a.15.15,0,1,0-.29.07,82.19,82.19,0,0,0,2.92,9c.07.17.14.33.2.5A68.07,68.07,0,0,1,14.78,76c-.23-.72-.41-1.45-.57-2.18a5.33,5.33,0,0,0,0-.81c-.16-.74-.34-1.38-.46-2s-.16-1.21-.22-1.81c0,0,0,0,0-.08v0a54,54,0,0,1,.25-9.06,71.66,71.66,0,0,1,1.3-9,.16.16,0,0,0-.11-.19.15.15,0,0,0-.19.1,73.63,73.63,0,0,0-1.56,9.06c0,.21,0,.42-.07.64,0-.62,0-1.24,0-1.86s.13-1.2.19-1.8a5,5,0,0,0,.25-1.15c0-.53,0-1,0-1.46a46.42,46.42,0,0,1,1.52-6.6.69.69,0,0,0,.05-.13s0-.05,0-.08a39,39,0,0,1,1.5-4c.3-.52.62-1,.95-1.54a4.52,4.52,0,0,0,.82-1.17c.06-.13.1-.24.15-.37.71-1,1.45-2,2.22-3a31.88,31.88,0,0,1,5.66-5.77.15.15,0,0,0-.18-.24A26.21,26.21,0,0,0,23,34.39c.45-.64.79-1.23,1.21-1.78a47,47,0,0,1,4.45-4,.15.15,0,0,0-.19-.24A47.58,47.58,0,0,0,24.14,32.11ZM13.91,29c.1-.54.26-1.13.36-1.74a4.9,4.9,0,0,1,1.93,3.31,8.08,8.08,0,0,1-.29,3.12l-.3-.29c-.23-.25-.46-.52-.67-.79A6.27,6.27,0,0,1,14,30.9,3.24,3.24,0,0,1,13.91,29Zm-5.3,5.39a49.53,49.53,0,0,1,4.94-7.22c-.21.49-.43,1-.66,1.53a4.31,4.31,0,0,0-.18,2.52,6.09,6.09,0,0,0,1,2.24,9.78,9.78,0,0,0,.75,1l.4.44c.14.1.2.29.52.18A48,48,0,0,0,12.05,41a8.13,8.13,0,0,0-.39-2.81,5.53,5.53,0,0,0-3.22-3.38C8.5,34.65,8.56,34.53,8.61,34.41Zm2.83,7.05-.35-.23a8.44,8.44,0,0,1-.81-.64A6,6,0,0,1,9,39.09a3.15,3.15,0,0,1-.46-1.83c0-.54,0-1.16,0-1.77a4.93,4.93,0,0,1,2.56,2.85A8.16,8.16,0,0,1,11.44,41.46Zm-5.81-1.1c.64-1.52,1.35-3,2.12-4.48-.09.41-.18.83-.27,1.29a4.34,4.34,0,0,0,.33,2.52,6.27,6.27,0,0,0,1.48,2c.3.27.6.53.92.77l.49.35c.15.07.25.25.56.06-.43,1-.89,2-1.24,3.11s-.61,2.13-.89,3.19a8.54,8.54,0,0,0-1-2.64,5.57,5.57,0,0,0-3.8-2.57C4.74,42.74,5.14,41.53,5.63,40.36ZM9.49,64.88a4.88,4.88,0,0,1,2.87-2.53c-.1.6-.13,1.22-.21,1.76a3.23,3.23,0,0,1-.66,1.76A6.23,6.23,0,0,1,10,67.21a8,8,0,0,1-.88.54l-.27.13c0-.21,0-.42,0-.64A7.38,7.38,0,0,1,9.49,64.88Zm-.75.29c0-1.56,0-3.12,0-4.67.17.09.29,0,.42-.06l.56-.22c.36-.17.72-.35,1.07-.55a6.91,6.91,0,0,0,1.74-1.43c0,.13,0,.25,0,.38-.08,1-.08,2-.09,3.06A5.56,5.56,0,0,0,9,64.62C8.87,64.8,8.81,65,8.74,65.17Zm.63,4.18.52-.29a8.3,8.3,0,0,0,1-.67,6.41,6.41,0,0,0,1.67-1.73c0,.26,0,.52,0,.79s.07.77.1,1.16c0,.16,0,.32,0,.49h0s0,0,0,.07c0,.51.11,1,.17,1.54A5.55,5.55,0,0,0,10,74a7.67,7.67,0,0,0-.24,1c-.34-1.84-.59-3.71-.76-5.58C9.16,69.48,9.25,69.39,9.37,69.35Zm1.21,4.85A4.89,4.89,0,0,1,13,71.35c0,.21,0,.42.08.62,0,.39,0,.76,0,1.11a3.15,3.15,0,0,1-.43,1.83,6.37,6.37,0,0,1-1.25,1.53c-.26.23-.53.44-.81.65l-.34.23A8,8,0,0,1,10.58,74.2Zm2-18.65a3.15,3.15,0,0,1-.86,1.68,6.3,6.3,0,0,1-1.58,1.17,8.79,8.79,0,0,1-.94.43l-.29.11c0-.27,0-.54.07-.81A7.52,7.52,0,0,1,9.83,56,4.87,4.87,0,0,1,13,53.83C12.8,54.42,12.7,55,12.56,55.55ZM8.64,49.79l-.39-.14a8,8,0,0,1-.93-.45A6.15,6.15,0,0,1,5.74,48a3.27,3.27,0,0,1-.84-1.69c-.13-.53-.23-1.13-.39-1.73a4.92,4.92,0,0,1,3.12,2.23A8,8,0,0,1,8.64,49.79ZM3.82,45.42c0,.35,0,.67,0,1.06a4.44,4.44,0,0,0,.87,2.38,6.23,6.23,0,0,0,1.88,1.61A10.8,10.8,0,0,0,7.66,51l.55.24c.12,0,.22.1.36.07a55.54,55.54,0,0,0-1,6.79A7.88,7.88,0,0,0,6.3,55.89a5.58,5.58,0,0,0-4.33-2h0A61,61,0,0,1,3.82,45.42Zm3.4,13.63L6.87,59a8.1,8.1,0,0,1-1-.3,6,6,0,0,1-1.73-1,3.23,3.23,0,0,1-1.08-1.54c-.21-.51-.39-1.09-.64-1.66a4.91,4.91,0,0,1,3.41,1.75A8,8,0,0,1,7.22,59.05Zm-6,1.49c.08-1.9.27-3.8.53-5.69.09.52.16,1,.26,1.62A4.39,4.39,0,0,0,3.25,58.7,6.24,6.24,0,0,0,5.35,60a9.5,9.5,0,0,0,1.13.4l.58.15c.1,0,.2.06.3,0-.09,1.77-.12,3.54-.08,5.3,0,.56.07,1.13.1,1.69A8.5,8.5,0,0,0,5.64,65.1a5.52,5.52,0,0,0-4.4-1.51C1.24,62.57,1.22,61.55,1.25,60.54Zm5.67,7.6-.36,0a8.36,8.36,0,0,1-1-.19,6.5,6.5,0,0,1-1.83-.74,3.28,3.28,0,0,1-1.25-1.42c-.26-.47-.5-1-.81-1.57a4.94,4.94,0,0,1,3.58,1.35A8,8,0,0,1,6.92,68.14ZM1.24,65.31c.07.29.15.55.24.86a4.39,4.39,0,0,0,1.45,2.07,6.23,6.23,0,0,0,2.23,1.08,9.82,9.82,0,0,0,1.17.26l.6.09c.17,0,.35.12.54-.23h0a62.81,62.81,0,0,0,.91,7.24A8.21,8.21,0,0,0,6.6,74.83,5.55,5.55,0,0,0,2,73.93,73.35,73.35,0,0,1,1.24,65.31Zm7,12.36H7.91a8.77,8.77,0,0,1-1-.05A6.38,6.38,0,0,1,5,77.14,3.22,3.22,0,0,1,3.54,75.9c-.32-.44-.64-1-1-1.45a4.85,4.85,0,0,1,3.73.87A7.9,7.9,0,0,1,8.27,77.67ZM3.35,81.11c-.48-1.88-.85-3.77-1.17-5.68l.44,1a4.52,4.52,0,0,0,1.71,1.87,6.16,6.16,0,0,0,2.36.76,9.73,9.73,0,0,0,1.2.11h.59c.14,0,.29,0,.42-.11.45,2,1,4,1.61,5.93a7.73,7.73,0,0,0-1.8-1.51A5.76,5.76,0,0,0,3.92,83C3.74,82.33,3.51,81.73,3.35,81.11ZM8.41,84a8.43,8.43,0,0,1,2.39,2.3l-.46.06a10,10,0,0,1-1.09,0,6.42,6.42,0,0,1-2-.34,3.39,3.39,0,0,1-1.6-1.17c-.38-.44-.76-1-1.2-1.44A5.09,5.09,0,0,1,8.41,84ZM4.66,85.35l.08.15a4.58,4.58,0,0,0,1.94,1.78,6.65,6.65,0,0,0,2.51.58c.42,0,.84,0,1.25,0l.62,0c.15,0,.32,0,.44-.16.65,1.66,1.37,3.28,2.16,4.88a8.24,8.24,0,0,0-1.61-1,5.75,5.75,0,0,0-4.72.06A50.09,50.09,0,0,1,4.66,85.35Zm3.12,6.73a5.09,5.09,0,0,1,4,0,8.31,8.31,0,0,1,2.55,1.83l.07.15-.39.1a9.55,9.55,0,0,1-1.07.18,6.48,6.48,0,0,1-2.07-.07,3.34,3.34,0,0,1-1.74-1C8.72,93,8.28,92.49,7.78,92.08ZM9,94.67a4.29,4.29,0,0,0,1.52.9,6.63,6.63,0,0,0,2.56.24,10,10,0,0,0,1.24-.17l.61-.13.22-.05c.62,1.09,1.3,2.16,2,3.21a7.61,7.61,0,0,0-1.54-.76,5.72,5.72,0,0,0-4.28.21C10.54,97,9.74,95.86,9,94.67Zm8.8,5.71a9.47,9.47,0,0,1-1.05.26,6.33,6.33,0,0,1-2.07.08,3.34,3.34,0,0,1-1.81-.81c-.21-.16-.43-.35-.64-.54s-.35-.51-.54-.76a5.14,5.14,0,0,1,3.74-.14,8.51,8.51,0,0,1,2.82,1.76Zm3.33-8h0c0,.06.11.07.16.1.15.45.32.89.44,1.3a3.38,3.38,0,0,1,.14,2,6.67,6.67,0,0,1-.79,1.91c-.19.31-.39.61-.61.9l-.3.37a8.42,8.42,0,0,1-.67-3.26A5.11,5.11,0,0,1,21,92.1C21.07,92.17,21.1,92.25,21.15,92.33Zm-1.93-2.19a4,4,0,0,0,0-1c.46.83.94,1.66,1.45,2.47a5.77,5.77,0,0,0-1.79,4.05,7.89,7.89,0,0,0,.24,1.95c-.8-1.1-1.57-2.23-2.28-3.41.06,0,.11-.12.17-.17l.41-.47a12.47,12.47,0,0,0,.74-1A6.74,6.74,0,0,0,19.22,90.14Zm-1.29-2.28a3.29,3.29,0,0,1,0,2A6.56,6.56,0,0,1,17,91.7a8.81,8.81,0,0,1-.67.84l-.21.22-.31-.59a7.77,7.77,0,0,1-.23-2.58A5.11,5.11,0,0,1,17.48,86C17.61,86.68,17.81,87.3,17.93,87.86Zm-1.57-4.93c.33.81.66,1.62,1,2.41A5.78,5.78,0,0,0,15,89.54a7.64,7.64,0,0,0,0,1.07c-.56-1.11-1.07-2.23-1.55-3.38a1,1,0,0,1,.16-.12l.47-.42a10.48,10.48,0,0,0,.86-.9,6.36,6.36,0,0,0,1.33-2.2A3.65,3.65,0,0,0,16.36,82.93Zm-1.27-3.35c.05.55.14,1.08.18,1.58a3.34,3.34,0,0,1-.27,2,6.94,6.94,0,0,1-1.17,1.71q-.37.39-.78.75l-.25.2-.19-.45a7.87,7.87,0,0,1,.09-2.78A5.09,5.09,0,0,1,15,79.33C15,79.41,15.06,79.5,15.09,79.58Zm-1.26-4c.05.2.09.4.15.59.26.87.55,1.71.84,2.57a5.74,5.74,0,0,0-2.71,3.67,8.59,8.59,0,0,0-.14,1c-.51-1.52-1-3.07-1.35-4.63.22.08.3-.08.43-.15l.48-.36a8.44,8.44,0,0,0,.91-.79A6.57,6.57,0,0,0,13.83,75.59Zm-.57-22.45A5.57,5.57,0,0,0,9.32,55.7c-.08.14-.14.29-.21.43.17-1.53.42-3,.73-4.54.12,0,.23,0,.34,0l.58-.14q.57-.16,1.14-.39A6.48,6.48,0,0,0,14,49.77C13.68,50.88,13.47,52,13.26,53.14Zm1-5.93a3.17,3.17,0,0,1-1.09,1.53,6.16,6.16,0,0,1-1.74.93,7.12,7.12,0,0,1-1,.29l-.16,0c.1-.42.22-.84.34-1.26a6.75,6.75,0,0,1,.88-1.46,4.88,4.88,0,0,1,3.42-1.72C14.61,46.12,14.43,46.71,14.21,47.21Zm1.94-3.66c-.06.1-.13.19-.18.29h0s0,0,0,.07c-.15.36-.32.71-.46,1.07a.23.23,0,0,0-.19-.07h0a5.56,5.56,0,0,0-4.25,1.88c.05-.15.07-.3.12-.45.31-1,.72-1.94,1.11-2.9.13.13.27.07.4.09h.6c.39,0,.79-.07,1.19-.13a7.2,7.2,0,0,0,2-.65C16.38,43,16.27,43.28,16.15,43.55Zm1.44-3.38a3.14,3.14,0,0,1-1.4,1.26,6.43,6.43,0,0,1-1.9.53c-.34,0-.69.06-1,.07h-.37a8.22,8.22,0,0,1,2-2.39,4.93,4.93,0,0,1,3.72-.93C18.22,39.2,17.91,39.73,17.59,40.17Zm-3.08-1c-.17.13-.27.31-.43.45a43.41,43.41,0,0,1,2.2-3.79c.1.2.27.15.4.2l.59.11a11.69,11.69,0,0,0,1.19.12A7.1,7.1,0,0,0,20.68,36c-.57.71-1.13,1.42-1.64,2.17A5.56,5.56,0,0,0,14.51,39.16Zm6.08-2.08c-.44.57-.86,1.15-1.29,1.73,0-.06.05-.12.07-.17l0-.06,0-.07s0-.06,0-.1c.63-1,1.34-1.88,2.06-2.78a4.39,4.39,0,0,0,1.44-1.17C22.1,35.31,21.32,36.18,20.59,37.08Zm1.55-3.37a3.11,3.11,0,0,1-1.62.95,6.4,6.4,0,0,1-2,.13,7.28,7.28,0,0,1-1-.14l-.39-.09,0,0a8,8,0,0,1,2.44-1.9,4.92,4.92,0,0,1,3.82-.16C23,32.88,22.54,33.34,22.14,33.71Z"/><path class="cls-3" d="M107.83,9.91c-.77-.94-2-1.39-3.88-1.39a7.33,7.33,0,0,0-6.81,4.14,15.89,15.89,0,0,1-2,.85l-.25-.36A2.74,2.74,0,0,0,95.53,12l.12-.44-.18-.42A4.39,4.39,0,0,0,91,8.52c-4,0-7.74,3.61-9.77,7.79l2.54-6.38-.73-.59a4.21,4.21,0,0,0-4.39-.11,5.59,5.59,0,0,0-2.94-.71,8.79,8.79,0,0,0-5.8,2.64c-.54.07-1.12.15-1.76.21-.26,0-.6.05-1,.07a2.24,2.24,0,0,0-.28-1.74,3.32,3.32,0,0,0,1.48-1,3.39,3.39,0,0,0,.73-2.47A3.34,3.34,0,0,0,67.85,4a3.29,3.29,0,0,0-2.47-.73,3.37,3.37,0,0,0-3,3.7,3.35,3.35,0,0,0,.9,1.89,9.84,9.84,0,0,0-3.09,1.55,2.59,2.59,0,0,0-.91,1.17h-.15a3.4,3.4,0,0,0-.75-1.76,3.5,3.5,0,0,0-2.68-1.15,6.65,6.65,0,0,0-4.2,1.77,3.14,3.14,0,0,0-2.92-1.77,6.11,6.11,0,0,0-3.35,1.13l-.07-.11a2.49,2.49,0,0,0-2.25-1,7.86,7.86,0,0,0-4.43,1.75l-.15.11,2.17-5.42A2.8,2.8,0,0,0,42.27,3,2,2,0,0,0,41.5.86L41,.49l-.61.19A11.12,11.12,0,0,1,35.74.5,31.59,31.59,0,0,0,30.8,0c-4.19,0-6.63,2.73-7.13,5.28a4.11,4.11,0,0,0,.7,3.4,3.48,3.48,0,0,0,4,.83,59.15,59.15,0,0,1-6.45,10.1l-.6-.59A3.25,3.25,0,0,0,19,18.13a4,4,0,0,0-4.3,3.39c-.4,2.07-.16,3.72.69,4.75a3,3,0,0,0,2.35,1.07c3.22,0,6.28-2.65,10.16-8.84h.82l-1.33,3.36a4.07,4.07,0,0,0,.09,3.94c1.09,1.6,3.85,2,6.43.7l.2.16a3.47,3.47,0,0,0,2.15.68,4.35,4.35,0,0,0,4.11-2.77l.83.05-.59,1.45.75.59a3.46,3.46,0,0,0,2.14.68,4.38,4.38,0,0,0,4.13-2.78l.19-.48.32-.06.9.11a3,3,0,0,0,3.38,3.21,8.62,8.62,0,0,0,4.45-1.5,3.39,3.39,0,0,0,.29.38A3.73,3.73,0,0,0,60,27.34a9.23,9.23,0,0,0,5.16-2,3.65,3.65,0,0,0,1.6,1.56c-2.71,1.62-5.33,3.91-5.91,6.9a4.57,4.57,0,0,0,.79,4,4.16,4.16,0,0,0,3.3,1.44c5.85,0,9.4-6.18,12.09-12.37,1.26-.58,2.46-1.23,3.39-1.77a4.43,4.43,0,0,0,4.16,2.27h0c2.62,0,5.65-1.9,7.91-4.56a4,4,0,0,0,.68,2.72c.6.84,1.82,1.84,4.3,1.84,4.63,0,7.74-2.32,8.52-6.35a4,4,0,0,0-1.58-4.3h.13c1.83.12,3.52-1.37,4-3.61A3.67,3.67,0,0,0,107.83,9.91ZM65.58,6.12l.32,0a.18.18,0,0,1-.15.17Zm-36.4.49a2.39,2.39,0,0,1,1.56-1.79l-1.42,2.8-.07-.11A1.43,1.43,0,0,1,29.18,6.61Z"/><g class="cls-4"><g id="_Grupo_" data-name="&lt;Grupo&gt;"><g id="_Grupo_2" data-name="&lt;Grupo&gt;"><g id="_Grupo_3" data-name="&lt;Grupo&gt;"><path id="_Trazado_compuesto_" data-name="&lt;Trazado compuesto&gt;" class="cls-5" d="M36.38,91.82c2.17,2.69,9.19-1.3,9.19-1.3l4.76,3.64s2.38.11,7.22-2,11-7.85,11.34-10.21S63,72.48,63,72.48L56.31,62.41,52.88,58l-2.72-.2A122.87,122.87,0,0,0,39.5,64.28C35,67.43,35,70.88,35,70.88l.57,1.66-3.28.6s-2.17,1.33-3.24,2.13a2.65,2.65,0,0,0-.82,3.41c.66,1.08,5.26,8.11,5.26,8.11A16.22,16.22,0,0,0,36.38,91.82Zm.74-5.71L33.75,81.8s-1.37-3.07-1.48-3.34A2.75,2.75,0,0,1,32.51,77C32.63,77,37,75.19,37,75.19l6.34,9.54s1.3,1.66.29,2.39c0,0-2.64,2.34-4.39,1.23A4.78,4.78,0,0,1,37.12,86.11Z"/><path id="_Trazado_" data-name="&lt;Trazado&gt;" class="cls-6" d="M36.12,74.43a5,5,0,0,0-4,1.48C30.6,77.64,30,78.27,32,81.06s3.71,5.33,4.4,6.64,2.76,1.49,2.76,1.49-3.57-4.63-3.71-4.77-3.17-5.83-3.17-5.83l1.08-1.88a28.27,28.27,0,0,1,2.83-.95c.23,0,1.17,0,1.17,0Z"/><path id="_Trazado_2" data-name="&lt;Trazado&gt;" class="cls-6" d="M54.46,77.74s-5.72-9.52-7.09-9.3-.47,2.69,1.24,6-3.7-4.67-3.7-4.67l.36-2.34a24.44,24.44,0,0,1,2.61-.48c.16.07,1.41.76,1.41.76Z"/><path id="_Trazado_3" data-name="&lt;Trazado&gt;" class="cls-3" d="M62.1,78.23a74.76,74.76,0,0,0-4.69-10.29C55.12,64.2,54,64,54,64S60.76,76.17,62.1,78.23Z"/><path id="_Trazado_4" data-name="&lt;Trazado&gt;" class="cls-3" d="M64.44,80.35s-4.53,3.49-7.69,5.43C53.17,88,49.39,89,49.47,89.4s4.83-.5,7.27-2a63.51,63.51,0,0,0,6.07-4.61Z"/><path id="_Trazado_5" data-name="&lt;Trazado&gt;" class="cls-6" d="M52.29,60.1a17.53,17.53,0,0,1,3.39,4.56,131.63,131.63,0,0,0,7.61,11.59c1.6,2,1.68,4,1,5S58,86.8,55.48,88,49.24,89.69,48.92,90s2.59,2.52,7.16-.36,7.68-5.59,8.2-4.86a2.88,2.88,0,0,1,.57,1.29s3.88-4.24,3.79-6.35-4.07-5.55-4.07-5.55l-4.25-5.6-3-6.08-3.84-3.46-1.94-.38Z"/><path id="_Trazado_6" data-name="&lt;Trazado&gt;" class="cls-6" d="M61.12,77.85A11.32,11.32,0,0,1,58,74.12c-1.4-2.56-4.45-8.18-5.58-8.66a.88.88,0,0,0-1.33.65l-.58-2a3.36,3.36,0,0,1,2.05,0,19.67,19.67,0,0,1,2.63,2.3l5.29,9.28Z"/><path id="_Trazado_7" data-name="&lt;Trazado&gt;" class="cls-3" d="M48.73,86.41a74.09,74.09,0,0,1-7-8.86c-2.29-3.74-2-4.88-2-4.88S47.51,84.28,48.73,86.41Z"/><path id="_Trazado_8" data-name="&lt;Trazado&gt;" class="cls-6" d="M48.84,85.37a11.28,11.28,0,0,0-1.9-4.48c-1.64-2.41-5.26-7.68-5.17-8.91A.89.89,0,0,1,43,71.09L41.4,69.64a3.35,3.35,0,0,0-1,1.81,20.49,20.49,0,0,0,.85,3.4l5.86,8.93Z"/><path id="_Trazado_compuesto_2" data-name="&lt;Trazado compuesto&gt;" d="M49.9,95.92c2.41.39,7.78-2.77,11-4.85,3.32-1.93,8.45-5.21,9.19-7.5,1.1-3.43-.61-6.11-4.73-9.92s-8-13.12-10.2-15.08-4.12-1.5-5.87-.35-6.35,3.88-6.35,3.88h0c-.9.56-4.55,2.84-6.14,3.75-1.82,1-3.12,2.58-2.36,5.4s7.26,10.53,8.78,15.93S46.34,95.34,49.9,95.92Zm-3.59-7.57c-2.75-7.18-10.19-16.25-10-18.59.19-3.06,6-6.28,7.28-6.7,0,0,6.61-4.75,9.42-3.53,2.15.93,6.85,11.68,12,17.4,3.26,3.63.28,7.94-1.74,9.66a37.8,37.8,0,0,1-8,5.12C52.36,92.71,48.06,92.91,46.31,88.35Z"/><path id="_Trazado_9" data-name="&lt;Trazado&gt;" d="M62.1,78.23s-6.6-13.88-8.81-14.9a2.55,2.55,0,0,0-3.84,1.86c0,1.25,10.31,17,11.16,17S51,65.91,50.93,65.4s.78-1.94,2.33-.52,6.82,12,7.9,13.29S62.1,78.23,62.1,78.23Z"/><path id="_Trazado_10" data-name="&lt;Trazado&gt;" d="M48.63,86.47s-9.35-12.19-9.26-14.62a2.56,2.56,0,0,1,3.41-2.58C43.89,69.85,53.2,86.18,52.85,87S42.7,71,42.29,70.69s-2.08-.19-1.52,1.84S48.36,84.06,49,85.61,48.63,86.47,48.63,86.47Z"/><path id="_Trazado_11" data-name="&lt;Trazado&gt;" d="M64.56,80.16c-.49-.08-2.56,3.66-7,6.09s-8.34,2.87-8.24,3.41,4.86,0,8.08-1.89C63.76,84,65.48,80.31,64.56,80.16Z"/><path id="_Trazado_12" data-name="&lt;Trazado&gt;" d="M44.39,69a3.05,3.05,0,0,1,1.29-2.46h0s.87-.8,2.86-.1S57.3,82.33,57.3,82.33s.9,1.37.13,1-8-14-8.83-15.27a1.76,1.76,0,0,0-2.25-.6h0a1.81,1.81,0,0,0-.58,2.34c.78,1.38,9.56,13.93,9.58,14.81s-.79-.55-.79-.55S44.11,71.06,44.39,69Z"/><path id="_Trazado_13" data-name="&lt;Trazado&gt;" d="M35,70.63a2.91,2.91,0,0,0,2.32,2.08c1.95.38,1.81-2.52.79-3.83s-.2-1.66.29-1.22.62,3,2,2c1.22-.9-.29-1.75-.4-3-.12-1.45,1.2,3,3.31,2.3s1.69-2.6.66-4.28S45,61.72,45.9,63.05s2.55,2.46,3.48,1.07-.88-3-.17-3.7,1.35,3.43,3.09,2.14-.59-3.52-.45-3.9.61-1.2,2.16.84,1.38-.55,2.9,1.58,1.83,4.69,3.81,3.18-1.81-3.81-2.84-5.12.92-5.33-2.72-6.16c0,0,.25-4.7-3.54-5.66s-5.45,1.33-5.45,1.33S44,44.78,40,46.87s-3.5,4.52-3.5,4.52-2-1.51-5.16,1.3a5.69,5.69,0,0,0-1.38,6.51s-2.19.44-2.47,3.52,2.62,4.65,2.62,4.65a3,3,0,0,0,1.56,4.49C34.26,73.11,35,70.63,35,70.63Z"/><path id="_Trazado_14" data-name="&lt;Trazado&gt;" class="cls-3" d="M33.15,71.22c1.42-.16,2.17-1.78,2.21-1.85l0,1.09c1.16,1.8,2.38,1.89,2.68,1.1s-.25-1.69-1-3c-.41-.72-.53-1.22-.34-1.56s.47-.45,1-.57c1.17-.27,1.58,2.22,1.74,2.57h0c.17.35,1.15.23.7-.77s-1-2.08-.63-2.86c0,0,.05-.1.08-.14.35-.54.77.07,1.43,1.06a5.44,5.44,0,0,0,1.34,1.6.65.65,0,0,0,.71,0c.69-.42.67-1.36.26-2.39s-.82-1.9-.1-3.18a1.77,1.77,0,0,1,2.58-.59A1,1,0,0,1,46,62a4.38,4.38,0,0,0,1.53,1.61.69.69,0,0,0,.68,0c.73-.45.41-1.26.06-2.55s0-1.35.81-1.78S51,61.58,51.18,61.7a.38.38,0,0,0,.31-.05c.29-.16.61-.6.26-1.48a4.43,4.43,0,0,0-1.38-1.89c2.26-.88,4.7.92,6.58,3.07a6.91,6.91,0,0,0,2.16,1.84c.58.25.9,0,.86-.56-.08-1.12-2.73-3.08-2.73-3.08a4.9,4.9,0,0,1-.88-1.08c-.26-.51.58-1.25-.06-3.2s-3.24-1.54-3.24-1.54l.13-.09,1-.65c.19-2-1.06-3.66-3.43-4.5-1.27-.46-2.82.15-4,.81a12.31,12.31,0,0,0-1.68,1.15h0l.49-1a4.26,4.26,0,0,0-6.45-.86A5.55,5.55,0,0,0,37.51,51a6.21,6.21,0,0,0-.31,2.82h0l-1-1.24a6.06,6.06,0,0,0-4.54,1.72,3.9,3.9,0,0,0-.49.6,5.3,5.3,0,0,0-.55,4.17l.95.82a2.46,2.46,0,0,0-1.58.52,4.09,4.09,0,0,0-1.15,1.76,3.48,3.48,0,0,0,.12,2.5A4.26,4.26,0,0,0,32.18,67h0s-1.38.68-1.54,1.5a1.41,1.41,0,0,0,.07.68C31,70.12,32,71.35,33.15,71.22Z"/><path id="_Trazado_15" data-name="&lt;Trazado&gt;" class="cls-7" d="M46.67,49.46a4.65,4.65,0,0,1,3.27,0c2,.6,3.21,4.21,3.21,4.21h0l1-.65c.19-2-1.06-3.66-3.43-4.5-1.27-.46-2.82.15-4,.81A1.43,1.43,0,0,0,46.67,49.46Z"/><path id="_Trazado_16" data-name="&lt;Trazado&gt;" class="cls-7" d="M55.17,55.92c.45,1.77-.65,1.92,1.08,3.59s2.39,2,3,2.86c.29.44.12.68-.12.82.58.25.9,0,.86-.56-.08-1.12-2.73-3.08-2.73-3.08a4.9,4.9,0,0,1-.88-1.08c-.26-.51.58-1.25-.06-3.2s-3.24-1.54-3.24-1.54l.13-.09-1.32.54S54.72,54.15,55.17,55.92Z"/><path id="_Trazado_17" data-name="&lt;Trazado&gt;" class="cls-7" d="M51.18,54.52a3.76,3.76,0,0,0-3,.56c-1.44,1-1.59,1.79-1.59,1.79s-2.13-1.23-3.76-.61a4.19,4.19,0,0,0-2.17,1.63,3.65,3.65,0,0,1,1.57-3c1.68-1.21,3.65.12,3.65.12S48.34,51.16,51.18,54.52Z"/><path id="_Trazado_18" data-name="&lt;Trazado&gt;" class="cls-7" d="M47.15,52.26A2.93,2.93,0,0,0,44.93,52a3.41,3.41,0,0,0-1.37,1.4,2,2,0,0,1,.88-2A1.86,1.86,0,0,1,47.15,52.26Z"/><path id="_Trazado_19" data-name="&lt;Trazado&gt;" class="cls-7" d="M37.24,57.33a3,3,0,0,0-2.17.53,3.46,3.46,0,0,0-.79,1.8,2,2,0,0,1,.1-2.21A1.86,1.86,0,0,1,37.24,57.33Z"/><path id="_Trazado_20" data-name="&lt;Trazado&gt;" class="cls-7" d="M40.39,62.35a3,3,0,0,0-2.21.38,3.5,3.5,0,0,0-.9,1.75,2,2,0,0,1,.25-2.2A1.86,1.86,0,0,1,40.39,62.35Z"/><path id="_Trazado_21" data-name="&lt;Trazado&gt;" class="cls-7" d="M37.79,63.42a2.94,2.94,0,0,0-2.21.38,3.51,3.51,0,0,0-.91,1.74,2,2,0,0,1,.25-2.2A1.86,1.86,0,0,1,37.79,63.42Z"/><path id="_Trazado_22" data-name="&lt;Trazado&gt;" class="cls-7" d="M36.89,65.49a3,3,0,0,0-2.21.38,3.5,3.5,0,0,0-.9,1.75,2,2,0,0,1,.24-2.2A1.87,1.87,0,0,1,36.89,65.49Z"/><path id="_Trazado_23" data-name="&lt;Trazado&gt;" class="cls-7" d="M37.51,51c3.63-4.07,7.57-.55,7.57-.55l.49-1a4.26,4.26,0,0,0-6.45-.86A5.55,5.55,0,0,0,37.51,51Z"/><path id="_Trazado_24" data-name="&lt;Trazado&gt;" class="cls-7" d="M31.18,54.9l.08-.07c2.28-2.11,5.94-1,5.94-1l-1-1.24a6.06,6.06,0,0,0-4.54,1.72A3.9,3.9,0,0,0,31.18,54.9Z"/><path id="_Trazado_25" data-name="&lt;Trazado&gt;" class="cls-7" d="M47.54,63.62a.69.69,0,0,0,.68,0c.73-.45.41-1.26.06-2.55s0-1.35.81-1.78S51,61.58,51.18,61.7a.38.38,0,0,0,.31-.05s-.94-2.59-2.18-2.83-1.68.27-1.82,1.28.85,2.3.43,3.06A1.53,1.53,0,0,1,47.54,63.62Z"/><path id="_Trazado_26" data-name="&lt;Trazado&gt;" class="cls-7" d="M42.82,67.2a1.38,1.38,0,0,1-.5.71.65.65,0,0,0,.71,0c.69-.42.67-1.36.26-2.39s-.82-1.9-.1-3.18a1.77,1.77,0,0,1,2.58-.59h0A1.65,1.65,0,0,0,44,61.13a2.66,2.66,0,0,0-2,2.37C41.91,64.63,43.24,66.13,42.82,67.2Z"/><path id="_Trazado_27" data-name="&lt;Trazado&gt;" class="cls-7" d="M32.18,67h0s-3.32-2.49-3.34-4.72v-.11a3.48,3.48,0,0,0,.12,2.5A4.26,4.26,0,0,0,32.18,67Z"/><path id="_Trazado_28" data-name="&lt;Trazado&gt;" class="cls-7" d="M39.4,69c.17.35,1.15.23.7-.77s-1-2.08-.63-2.86c0,0,.05-.1.08-.14-.21.1-.57.41-.26,1.32.43,1.24,1,1.86.37,2.23A1,1,0,0,0,39.4,69Z"/><path id="_Trazado_29" data-name="&lt;Trazado&gt;" class="cls-7" d="M35.36,69.37l0,1.09c1.16,1.8,2.38,1.89,2.68,1.1s-.25-1.69-1-3c-.41-.72-.53-1.22-.34-1.56l0-.06s-.6.41.27,2.15.49,2,.18,2S35.36,69.37,35.36,69.37Z"/><path id="_Trazado_30" data-name="&lt;Trazado&gt;" class="cls-7" d="M33.15,71.22c1.42-.16,2.17-1.78,2.21-1.85l.08-.89S34.19,70.1,33,70.24a2.6,2.6,0,0,1-2.26-1.06C31,70.12,32,71.35,33.15,71.22Z"/><path id="_Trazado_31" data-name="&lt;Trazado&gt;" d="M37.22,75.17s-2.21-.78-5,1.55,4.32,8.47,5,11.07,6,2.36,6.8-.43l-.57-1.58s-.9,2.34-2.87,2.49-2.59-1.62-3.37-3-4.08-5.36-4.33-6.87,4.89-2.13,4.89-2.13Z"/><path id="_Trazado_32" data-name="&lt;Trazado&gt;" d="M35.94,73.14s-3.71-.13-5.76,2.19-.81,4.24.85,6.41A35,35,0,0,1,35.38,89C35.9,90.6,38,91.77,40,91.7a10.48,10.48,0,0,0,4.41-1.64L45,91.43s-5.36,3.39-8.54,1-3.28-6.09-5.16-8.52-4.13-4.84-3.52-7.12a6.31,6.31,0,0,1,4.39-4.25,12.06,12.06,0,0,1,3-.64Z"/></g><g id="_Grupo_4" data-name="&lt;Grupo&gt;"><path id="_Trazado_33" data-name="&lt;Trazado&gt;" d="M23.6,84.4a10.63,10.63,0,0,1,1.59-4c1.28-1.88,4.24-1,5.21-.33s1.67,2.41,2.92,3,1.51,2.81,0,3.31c0,0,2.05,4.76,3.63,5.28a3.8,3.8,0,0,0,2.65,1.07s-3.47,4.79-7.69,4.57l-4.48,4.42a.77.77,0,0,1-1.08,0l-7-7.14a.76.76,0,0,1-.05-1l3.11-3.81S23,85.66,23.6,84.4Z"/><path id="_Trazado_34" data-name="&lt;Trazado&gt;" class="cls-8" d="M20.14,93.81a11.12,11.12,0,0,0,2,2.11c.9.81,3.06,3.17,4.28,4.39a3.67,3.67,0,0,0,.86.76,40.86,40.86,0,0,0,3.83-3.9c.41-.58.09-.69-.67-1.71s-1.67-1.73-2.07-1.69-1.94,1.74-2.19,1.62l0,0c-.08-.12.26-.56.59-1s.74-1.07.53-1.26c-.38-.37-2.66-1.29-3.12-1.76a1.25,1.25,0,0,1-.37-.61h0c0-.14,0-.21.12-.15A18,18,0,0,0,26.25,92c.82.4,1.64.65,2.09.3,1.06-.8,1.26-2.2,1.26-4.28a4.6,4.6,0,0,0-1.19-3.22l-.27-.26A2.49,2.49,0,0,1,27.36,83c0-.12.12,0,.22.11s.33.57.41.67,1,1.24,1.24.43l0-.08c.16-.84.7-1,.59-.72a.42.42,0,0,1-.09.15,1.87,1.87,0,0,0-.3,1.23A4.69,4.69,0,0,0,30.6,86a1.92,1.92,0,0,0,3.2-.48,1.71,1.71,0,0,0,.12-1,2.33,2.33,0,0,1-.76.45c-.53.23-1.37-.35-1.68-.89s.47-1.29.47-1.29-.22,0-.64-.63a5.78,5.78,0,0,0-1.55-1.37,5,5,0,0,0-1.4-.66.8.8,0,0,0-.76.32c-.24.25-.62.52-.57.29s.63-.62.44-.62-.31.09-.59.44-.52,1-.6.86a1.05,1.05,0,0,1,.27-.85c.22-.23.37-.35.22-.3a2.48,2.48,0,0,0-.89.73,23,23,0,0,0-1.53,3.36.34.34,0,0,1,.24.07c.11.08-.51.81-.62,1.75s-.5,3.51-.56,3.76S20.14,93.67,20.14,93.81Z"/><path id="_Trazado_35" data-name="&lt;Trazado&gt;" class="cls-8" d="M29.4,93A12.76,12.76,0,0,1,32,95.86c.43,1,3.17-.08,4.47-1.32a5.41,5.41,0,0,0,1.52-2s-2.4-1-3.14-2.57a13.53,13.53,0,0,0-1.62-3.08c-.24-.09-.65.36-1.82,0s-1.44-.73-1.44-.73a11.24,11.24,0,0,1,.43,1.29c.39,1.48.7,3.88-.77,5.32Z"/><path id="_Trazado_36" data-name="&lt;Trazado&gt;" class="cls-9" d="M33.82,84.07a1.08,1.08,0,0,1-.79.51,1.17,1.17,0,0,1-1.2-.7,1.2,1.2,0,0,1,.28-.95,5.75,5.75,0,0,1,1.18.47C33.5,83.48,33.88,83.74,33.82,84.07Z"/><path id="_Trazado_37" data-name="&lt;Trazado&gt;" d="M31.81,77.47c.92-.66,2.71-1.82,3.46-1.82,0,0,1.53-.33,1.72,1.86a2.36,2.36,0,0,1-.19,1.28,3.6,3.6,0,0,1,1.33-.47s1.53-.33,1.72,1.86a2.39,2.39,0,0,1-.21,1.32c.31,0,1.48,0,1.64,1.87A2.12,2.12,0,0,1,40.85,85c.4,0,1.06.3,1.18,1.6.16,1.86-1.42,1.91-2.37,3a1.6,1.6,0,0,1-2.72-.07,2,2,0,0,1-.15-1.84,2,2,0,0,1-1.45-.92,2.39,2.39,0,0,1-.12-2.29,2,2,0,0,1-1.31-.9,2.35,2.35,0,0,1-.18-2.13,1.8,1.8,0,0,1-2.68-.54A2.69,2.69,0,0,1,31.81,77.47Z"/><path id="_Trazado_38" data-name="&lt;Trazado&gt;" class="cls-8" d="M31.85,80.77a1.78,1.78,0,0,0,1.42.44c.37-.09.73-.58.38-.5s-.58-.35-.34-.27.78.07,1.63-.69A2.56,2.56,0,0,1,36.26,79a4.33,4.33,0,0,0,.21-1.23,1,1,0,0,0,0-.3c-.18-.49-.4-1-.34-.69s.14.76-.12.17-.58-.66-.58-.66a1.27,1.27,0,0,0-.89.24,18.2,18.2,0,0,1-2,1.38c-.39.12-.87,1-.95,1.21s.7.7.67.82l0,0c-.25,0-.64-.67-.75-.5A2.29,2.29,0,0,0,31.85,80.77Z"/><path id="_Trazado_39" data-name="&lt;Trazado&gt;" class="cls-8" d="M34.19,82.58c.06.36.57,1,1.11,1.06s.35-.46,1.46-1.2a8.44,8.44,0,0,1,2.13-1,1,1,0,0,0,.29-.92,3.06,3.06,0,0,0-.24-.85c-.13-.28-.32-.69-.82-.7s-.77.36-1.21.54a14.73,14.73,0,0,0-1.76,1.1c-.32.22-.49.34-.29.9s.73.77.48.71h0l-.16,0c-.58-.2-.67-1.07-.74-1A3.7,3.7,0,0,0,34.19,82.58Z"/><path id="_Trazado_40" data-name="&lt;Trazado&gt;" class="cls-8" d="M35.66,86a1.44,1.44,0,0,0,1.27.59c.25,0,.83-1,1.59-1.41a20.54,20.54,0,0,1,2-.82.77.77,0,0,0,.08-.51h0a6.2,6.2,0,0,1-.31-.82.86.86,0,0,0-1.09-.74,6.78,6.78,0,0,0-2,.87c-.45.28-1,.9-.86,1.18a7.57,7.57,0,0,0,1.08.91h0l0,0c0,.07-.38.13-.93-.22s-.35-.89-.64-.63A1.74,1.74,0,0,0,35.66,86Z"/><path id="_Trazado_41" data-name="&lt;Trazado&gt;" class="cls-8" d="M37.45,88.87a1.13,1.13,0,0,0,1.31.42c.42-.15,1.34-1.87,1.57-2s-.19,1-.19,1l1.07-1.06s-.05-1.21-.39-1.43a3.66,3.66,0,0,0-2.21.41,3.43,3.43,0,0,0-.78.82,3,3,0,0,0-.33.58C37.37,88.05,37.09,88.4,37.45,88.87Z"/><path id="_Trazado_42" data-name="&lt;Trazado&gt;" class="cls-10" d="M29.4,93A12.76,12.76,0,0,1,32,95.86c.43,1,3.17-.08,4.47-1.32a5.41,5.41,0,0,0,1.52-2s-2.4-1-3.14-2.57a13.53,13.53,0,0,0-1.62-3.08c-.24-.09-.65.36-1.82,0s-1.44-.73-1.44-.73a11.24,11.24,0,0,1,.43,1.29,2.28,2.28,0,0,0,1.37.7l1.07.08a12.75,12.75,0,0,0,1.67,3.23c.81.83.16,1.77-.95,2.43S30.44,93,29.6,92.83Z"/><path id="_Trazado_43" data-name="&lt;Trazado&gt;" class="cls-10" d="M25,97.05c-.18.67,2.11-1,3.07-1.49s1.65.54,1.41,1.41-2.55,2.59-3,3.34a3.67,3.67,0,0,0,.86.76,40.86,40.86,0,0,0,3.83-3.9c.41-.58.09-.69-.67-1.71s-1.67-1.73-2.07-1.69-1.94,1.74-2.19,1.62A7.65,7.65,0,0,0,25,97.05Z"/><path id="_Trazado_44" data-name="&lt;Trazado&gt;" class="cls-10" d="M26.79,94.35c.37-.52.74-1.07.53-1.26-.38-.37-2.66-1.29-3.12-1.76a1.25,1.25,0,0,1-.37-.61,1.43,1.43,0,0,0,.58,1.58C25.32,93,26.63,93.86,26.79,94.35Z"/><path id="_Trazado_45" data-name="&lt;Trazado&gt;" class="cls-10" d="M37.45,88.87a1.13,1.13,0,0,0,1.31.42c.42-.15,1.34-1.87,1.57-2s-.19,1-.19,1l1.07-1.06-.59.18s.19-.9-.06-.86-.57.64-1,1-1.53-.18-1.73-.57a3,3,0,0,0-.33.58C37.37,88.05,37.09,88.4,37.45,88.87Z"/><path id="_Trazado_46" data-name="&lt;Trazado&gt;" class="cls-10" d="M35.66,86a1.44,1.44,0,0,0,1.27.59c.25,0,.83-1,1.59-1.41a20.54,20.54,0,0,1,2-.82.77.77,0,0,0,.08-.51h0a3.15,3.15,0,0,0-1.75.47c-.74.47-1.21.83-1.4.93l0,0c0,.07-.38.13-.93-.22s-.35-.89-.64-.63A1.74,1.74,0,0,0,35.66,86Z"/><path id="_Trazado_47" data-name="&lt;Trazado&gt;" class="cls-10" d="M34.19,82.58c.06.36.57,1,1.11,1.06s.35-.46,1.46-1.2a8.44,8.44,0,0,1,2.13-1,1,1,0,0,0,.29-.92l0,0A7.67,7.67,0,0,0,37,81.72a1.59,1.59,0,0,1-1.63.48h0l-.16,0c-.58-.2-.67-1.07-.74-1A3.7,3.7,0,0,0,34.19,82.58Z"/><path id="_Trazado_48" data-name="&lt;Trazado&gt;" class="cls-10" d="M31.85,80.77a1.78,1.78,0,0,0,1.42.44c.37-.09.73-.58.38-.5s-.58-.35-.34-.27.78.07,1.63-.69A2.56,2.56,0,0,1,36.26,79a4.33,4.33,0,0,0,.21-1.23,4.92,4.92,0,0,0-.65.45c-.91.73-2,1.88-2.56,1.92a1.85,1.85,0,0,1-1-.2l0,0c-.25,0-.64-.67-.75-.5A2.29,2.29,0,0,0,31.85,80.77Z"/><path id="_Trazado_49" data-name="&lt;Trazado&gt;" class="cls-10" d="M29.46,84.79A4.69,4.69,0,0,0,30.6,86a1.92,1.92,0,0,0,3.2-.48,2.64,2.64,0,0,1-1.69.29,3.19,3.19,0,0,1-2.3-1.11c-.14-.31.15-1.32.05-1.3h0a.42.42,0,0,1-.09.15A1.87,1.87,0,0,0,29.46,84.79Z"/><path id="_Trazado_50" data-name="&lt;Trazado&gt;" class="cls-10" d="M29.23,84.21c-.23-.06-.77-.83-1.25-1a.56.56,0,0,0-.4,0c.15.22.33.57.41.67S29,85,29.23,84.21Z"/><path id="_Trazado_51" data-name="&lt;Trazado&gt;" class="cls-10" d="M26.25,92c.82.4,1.64.65,2.09.3,1.06-.8,1.26-2.2,1.26-4.28a4.6,4.6,0,0,0-1.19-3.22,4.33,4.33,0,0,1,.2,1.59c-.09,2.21-1.77,5.54-2.32,5.6Z"/></g></g><g id="_Grupo_5" data-name="&lt;Grupo&gt;"><path id="_Trazado_52" data-name="&lt;Trazado&gt;" d="M27.16,67.38s-4.05-.5-5.12.83a1.75,1.75,0,0,0,1.61,2.88c1.71-.15,3.2-2.5,4.54-2.91S27.16,67.38,27.16,67.38Z"/><path id="_Trazado_53" data-name="&lt;Trazado&gt;" class="cls-3" d="M26.14,67.92s-2.52-.23-3.2.52-.09,1.68,1,1.58,2-1.42,2.86-1.67S26.14,67.92,26.14,67.92Z"/></g><g id="_Grupo_6" data-name="&lt;Grupo&gt;"><path id="_Trazado_54" data-name="&lt;Trazado&gt;" d="M46.18,46.23s-.53-4.08,1.82-4.65,1.12,2,.59,2.92a8.22,8.22,0,0,1-2,2.37C46.08,47.21,46.18,46.23,46.18,46.23Z"/><path id="_Trazado_55" data-name="&lt;Trazado&gt;" class="cls-3" d="M46.88,45s-.3-2.3,1-2.62.63,1.14.33,1.64a4.57,4.57,0,0,1-1.12,1.34C46.82,45.54,46.88,45,46.88,45Z"/></g><g id="_Grupo_7" data-name="&lt;Grupo&gt;"><circle id="_Trazado_56" data-name="&lt;Trazado&gt;" cx="33.91" cy="47.89" r="1.9"/><circle id="_Trazado_57" data-name="&lt;Trazado&gt;" class="cls-3" cx="33.92" cy="47.84" r="1.08"/></g><g id="_Grupo_8" data-name="&lt;Grupo&gt;"><circle id="_Trazado_58" data-name="&lt;Trazado&gt;" cx="26.22" cy="58.68" r="1.46"/><circle id="_Trazado_59" data-name="&lt;Trazado&gt;" class="cls-3" cx="26.16" cy="58.53" r="0.82"/></g></g><g id="_Grupo_9" data-name="&lt;Grupo&gt;"><g id="_Grupo_10" data-name="&lt;Grupo&gt;"><g id="_Grupo_11" data-name="&lt;Grupo&gt;"><path id="_Trazado_compuesto_3" data-name="&lt;Trazado compuesto&gt;" class="cls-5" d="M95.68,76.44s2.16-8.11,2.45-9.34a2.64,2.64,0,0,0-1.84-3c-1.27-.43-3.75-1-3.75-1l-3.3.46,0-1.76S88.2,58.53,83,56.94a122.78,122.78,0,0,0-12.14-2.79l-2.53,1-1.88,5.23-3.2,11.66S59.53,80.81,60.59,83s8.72,5.71,14,6.15S82,88.71,82,88.71l3.39-4.95s7.91,1.59,9.13-1.64A16.26,16.26,0,0,0,95.68,76.44Zm-4.92,3.27c-1.3,1.6-4.55.2-4.55.2-1.18-.37-.47-2.36-.47-2.36l3-11s4.68.32,4.82.35a2.83,2.83,0,0,1,.68,1.28c0,.29-.37,3.64-.37,3.64l-1.85,5.15A4.78,4.78,0,0,1,90.76,79.71Z"/><path id="_Trazado_60" data-name="&lt;Trazado&gt;" class="cls-6" d="M89.35,65.52a5,5,0,0,1,4.22.16c2,1.16,2.76,1.58,1.8,4.83s-1.85,6.22-2.1,7.68-2.15,2.29-2.15,2.29,1.94-5.52,2-5.69,1.19-6.53,1.19-6.53L92.72,66.8a29.31,29.31,0,0,0-3,0c-.22.09-1.12.37-1.12.37Z"/><path id="_Trazado_61" data-name="&lt;Trazado&gt;" class="cls-6" d="M73,74.4s2.45-10.83,3.83-11.05,1.29,2.41.68,6,2-5.59,2-5.59l-1.07-2.11a22.88,22.88,0,0,0-2.63.36c-.13.12-1.11,1.16-1.11,1.16Z"/><path id="_Trazado_62" data-name="&lt;Trazado&gt;" class="cls-3" d="M65.86,77.26A74.43,74.43,0,0,1,67.1,66c1-4.27,2-4.86,2-4.86S66.49,74.88,65.86,77.26Z"/><path id="_Trazado_63" data-name="&lt;Trazado&gt;" class="cls-3" d="M64.3,80s5.39,1.91,9,2.76c4.09,1,8,.75,8,1.15s-4.74,1-7.53.39a63.38,63.38,0,0,1-7.2-2.48Z"/><path id="_Trazado_64" data-name="&lt;Trazado&gt;" class="cls-6" d="M69.5,57a17.42,17.42,0,0,0-1.79,5.39,129.54,129.54,0,0,1-3.6,13.39c-.89,2.4-.35,4.29.58,5A41.16,41.16,0,0,0,75.2,84.42c2.73.32,6.47-.3,6.87-.08s-1.67,3.2-6.91,1.9-9-2.9-9.31-2a2.92,2.92,0,0,0-.13,1.4s-5-2.81-5.59-4.84,2.13-6.55,2.13-6.55l2.28-6.64.92-6.71L68,56.36l1.73-1Z"/><path id="_Trazado_65" data-name="&lt;Trazado&gt;" class="cls-6" d="M66.67,76.6a11.41,11.41,0,0,0,1.8-4.53c.52-2.86,1.66-9.16,2.59-10a.89.89,0,0,1,1.47.2l-.09-2.12a3.42,3.42,0,0,0-2,.61,20.43,20.43,0,0,0-1.78,3L66.58,74.27Z"/><path id="_Trazado_66" data-name="&lt;Trazado&gt;" class="cls-3" d="M81.12,80.84A73.6,73.6,0,0,0,85,70.23c1-4.27.35-5.25.35-5.25S81.61,78.44,81.12,80.84Z"/><path id="_Trazado_67" data-name="&lt;Trazado&gt;" class="cls-6" d="M80.69,79.89a11.38,11.38,0,0,1,.4-4.85c.8-2.8,2.59-8.94,2.12-10.08a.88.88,0,0,0-1.4-.48l1-1.86s1.23.63,1.48,1.42a20.88,20.88,0,0,1,.26,3.49L81.8,77.85Z"/><path id="_Trazado_compuesto_4" data-name="&lt;Trazado compuesto&gt;" d="M86.6,79.86c-.25-5.61,3.52-15,3.35-17.88S88.08,58,86,57.59c-1.8-.36-6-1.39-7-1.64h0s-5.22-1.16-7.24-1.7-4-.36-5.48,2.18-2.24,12.59-5,17.5-3.51,8-1.38,10.91c1.41,1.94,7.31,3.46,11.07,4.25,3.7,1,9.79,2.29,12,1.16C86.18,88.58,86.85,85.47,86.6,79.86Zm-9.95,8a37.76,37.76,0,0,1-9.24-2.34c-2.47-1-6.65-4.17-4.68-8.64,3.09-7,4.18-18.72,5.94-20.27,2.29-2,10,.4,10,.4,1.38,0,7.87,1.23,9,4.08.87,2.17-3.35,13.12-3.72,20.8C83.79,86.81,79.64,88,76.65,87.9Z"/><path id="_Trazado_68" data-name="&lt;Trazado&gt;" d="M65.86,77.26S67.79,62,69.57,60.35a2.55,2.55,0,0,1,4.23.57c.38,1.19-4.49,19.35-5.28,19.65s4-18.48,3.93-19-1.34-1.6-2.37.24-2.72,13.53-3.35,15.09S65.86,77.26,65.86,77.26Z"/><path id="_Trazado_69" data-name="&lt;Trazado&gt;" d="M81.24,80.87s5.06-14.51,4.21-16.79a2.55,2.55,0,0,0-4-1.37c-.87.89-4.61,19.32-4,19.94S82,64.32,82.32,63.9s1.91-.84,2,1.27-3.59,13.32-3.72,15S81.24,80.87,81.24,80.87Z"/><path id="_Trazado_70" data-name="&lt;Trazado&gt;" d="M64.12,79.86c.45-.23,3.59,2.67,8.6,3.59s8.81.11,8.88.65-4.6,1.55-8.26.74C66.08,83.23,63.31,80.29,64.12,79.86Z"/><path id="_Trazado_71" data-name="&lt;Trazado&gt;" d="M79.79,62.92c-.76-1.56-1.68-1.87-2-1.93h0s-1.07-.49-2.74.8S71.7,79.65,71.7,79.65s-.43,1.59.18.94,3.19-15.74,3.6-17.26a1.77,1.77,0,0,1,2-1.28h0a1.82,1.82,0,0,1,1.28,2C78.4,65.66,74,80.33,74.24,81.17s.58-.76.58-.76S80.7,64.82,79.79,62.92Z"/><path id="_Trazado_72" data-name="&lt;Trazado&gt;" d="M89.25,61.55a2.9,2.9,0,0,1-1.55,2.7c-1.72,1-2.5-1.83-1.94-3.39s-.33-1.65-.66-1.07.36,3.05-1.31,2.5c-1.44-.48-.27-1.76-.57-3-.33-1.41-.2,3.22-2.42,3.22s-2.41-1.94-2-3.86-1.92-2.4-2.34-.87-1.65,3.14-3,2.11-.11-3.16-1-3.57-.21,3.68-2.27,3-.54-3.53-.79-3.85-1-.94-1.79,1.48-1.48-.09-2.26,2.4-.27,5-2.62,4.22.52-4.19,1.09-5.75-2.54-4.78.66-6.7c0,0-1.71-4.39,1.59-6.48s5.59-.45,5.59-.45.89-4.36,5.36-3.64,4.73,3.2,4.73,3.2,1.46-2.07,5.31-.38a5.7,5.7,0,0,1,3.35,5.75s2.22-.27,3.44,2.57-1,5.24-1,5.24a3,3,0,0,1-.07,4.75C90.7,63.69,89.25,61.55,89.25,61.55Z"/><path id="_Trazado_73" data-name="&lt;Trazado&gt;" class="cls-3" d="M91.17,61.54a3.28,3.28,0,0,1-2.69-1.07l.4,1c-.54,2.08-1.68,2.55-2.21,1.88s-.29-1.68,0-3.13c.17-.81.12-1.32-.17-1.59a1.39,1.39,0,0,0-1.11-.23c-1.2.11-.81,2.6-.85,3h0c-.05.38-1,.58-.91-.51s.29-2.29-.3-2.91l-.11-.12c-.51-.4-.72.31-1,1.46a5.35,5.35,0,0,1-.78,1.94.61.61,0,0,1-.66.22c-.79-.18-1.07-1.08-1-2.19s.19-2.06-.9-3a1.77,1.77,0,0,0-2.64.25.83.83,0,0,0-.14.32,4.5,4.5,0,0,1-.95,2,.73.73,0,0,1-.65.21c-.84-.2-.78-1.07-.86-2.41s-.43-1.27-1.32-1.43-1.1,2.77-1.23,2.94a.35.35,0,0,1-.31,0c-.32-.06-.77-.38-.72-1.32a4.55,4.55,0,0,1,.72-2.23c-2.41-.13-4.17,2.35-5.28,5A7.15,7.15,0,0,1,64,62c-.48.41-.85.31-1-.26-.28-1.1,1.63-3.78,1.63-3.78a5.06,5.06,0,0,0,.5-1.3c.08-.57-.94-1-.95-3.07s2.59-2.47,2.59-2.47l-.14,0-1.15-.31c-.8-1.81-.13-3.81,1.85-5.35,1.07-.83,2.73-.74,4-.48a11.33,11.33,0,0,1,1.95.57h0l-.79-.82a4.28,4.28,0,0,1,5.86-2.84,5.67,5.67,0,0,1,2.3,1.81,6.41,6.41,0,0,1,1.17,2.58h0l.55-1.48a6.08,6.08,0,0,1,4.85.21,4.22,4.22,0,0,1,.65.41,5.31,5.31,0,0,1,1.83,3.79l-.64,1.08a2.43,2.43,0,0,1,1.66,0,4,4,0,0,1,1.64,1.31A3.48,3.48,0,0,1,93.08,54a4.24,4.24,0,0,1-2.32,3.22h0s1.51.21,1.93,1a1.38,1.38,0,0,1,.14.66C92.85,59.82,92.3,61.31,91.17,61.54Z"/><path id="_Trazado_74" data-name="&lt;Trazado&gt;" class="cls-7" d="M71.51,45.11a4.63,4.63,0,0,0-3.11,1c-1.75,1.21-1.73,5-1.73,5h0l-1.15-.31c-.8-1.81-.13-3.81,1.85-5.35,1.07-.83,2.73-.74,4-.48Z"/><path id="_Trazado_75" data-name="&lt;Trazado&gt;" class="cls-7" d="M65.46,53.9c.13,1.83,1.22,1.63.1,3.75s-1.66,2.61-1.94,3.65c-.13.51.1.69.38.74-.48.41-.85.31-1-.26-.28-1.1,1.63-3.78,1.63-3.78a5.06,5.06,0,0,0,.5-1.3c.08-.57-.94-1-.95-3.07s2.59-2.47,2.59-2.47l-.14,0,1.42.09S65.33,52.08,65.46,53.9Z"/><path id="_Trazado_76" data-name="&lt;Trazado&gt;" class="cls-7" d="M68.81,51.33a3.8,3.8,0,0,1,3-.41c1.68.49,2.06,1.2,2.06,1.2s1.64-1.83,3.39-1.75a4.21,4.21,0,0,1,2.57.87,3.63,3.63,0,0,0-2.43-2.33c-2-.63-3.42,1.25-3.42,1.25S70.45,47.24,68.81,51.33Z"/><path id="_Trazado_77" data-name="&lt;Trazado&gt;" class="cls-7" d="M71.93,47.91s1-1.09,2-1a3.42,3.42,0,0,1,1.74.9,2,2,0,0,0-1.47-1.65C72.83,45.74,71.93,47.2,71.93,47.91Z"/><path id="_Trazado_78" data-name="&lt;Trazado&gt;" class="cls-7" d="M82.93,49.63a3,3,0,0,1,2.23-.18,3.44,3.44,0,0,1,1.31,1.46,2,2,0,0,0-.79-2.06A1.85,1.85,0,0,0,82.93,49.63Z"/><path id="_Trazado_79" data-name="&lt;Trazado&gt;" class="cls-7" d="M81.51,55.38a3,3,0,0,1,2.21-.32,3.46,3.46,0,0,1,1.41,1.37,2,2,0,0,0-.92-2A1.87,1.87,0,0,0,81.51,55.38Z"/><path id="_Trazado_80" data-name="&lt;Trazado&gt;" class="cls-7" d="M84.32,55.58a3,3,0,0,1,2.21-.33,3.52,3.52,0,0,1,1.41,1.37,2,2,0,0,0-.93-2A1.86,1.86,0,0,0,84.32,55.58Z"/><path id="_Trazado_81" data-name="&lt;Trazado&gt;" class="cls-7" d="M85.82,57.27A3,3,0,0,1,88,56.94a3.52,3.52,0,0,1,1.41,1.37,2,2,0,0,0-.92-2A1.87,1.87,0,0,0,85.82,57.27Z"/><path id="_Trazado_82" data-name="&lt;Trazado&gt;" class="cls-7" d="M80.7,43.7C76,41,73.33,45.55,73.33,45.55l-.79-.82a4.28,4.28,0,0,1,5.86-2.84A5.67,5.67,0,0,1,80.7,43.7Z"/><path id="_Trazado_83" data-name="&lt;Trazado&gt;" class="cls-7" d="M87.92,45.42l-.09,0c-2.83-1.28-6,.9-6,.9l.55-1.48a6.08,6.08,0,0,1,4.85.21A4.22,4.22,0,0,1,87.92,45.42Z"/><path id="_Trazado_84" data-name="&lt;Trazado&gt;" class="cls-7" d="M75.12,58.83a.73.73,0,0,1-.65.21c-.84-.2-.78-1.07-.86-2.41s-.43-1.27-1.32-1.43-1.1,2.77-1.23,2.94a.35.35,0,0,1-.31,0s.08-2.75,1.19-3.37,1.67-.27,2.12.65-.09,2.45.56,3A1.5,1.5,0,0,0,75.12,58.83Z"/><path id="_Trazado_85" data-name="&lt;Trazado&gt;" class="cls-7" d="M80.73,60.75a1.3,1.3,0,0,0,.68.52.61.61,0,0,1-.66.22c-.79-.18-1.07-1.08-1-2.19s.19-2.06-.9-3a1.77,1.77,0,0,0-2.64.25h0a1.63,1.63,0,0,1,1.51-1.14A2.68,2.68,0,0,1,80.41,57C80.78,58,80,59.86,80.73,60.75Z"/><path id="_Trazado_86" data-name="&lt;Trazado&gt;" class="cls-7" d="M90.76,57.23h0s2.37-3.41,1.69-5.52c0,0,0-.08,0-.11A3.48,3.48,0,0,1,93.08,54,4.24,4.24,0,0,1,90.76,57.23Z"/><path id="_Trazado_87" data-name="&lt;Trazado&gt;" class="cls-7" d="M84.54,61.41c-.05.38-1,.58-.91-.51s.29-2.29-.3-2.91l-.11-.12c.23,0,.66.21.65,1.17,0,1.32-.34,2.08.35,2.24A1,1,0,0,1,84.54,61.41Z"/><path id="_Trazado_88" data-name="&lt;Trazado&gt;" class="cls-7" d="M88.48,60.47l.4,1c-.54,2.08-1.68,2.55-2.21,1.88s-.29-1.68,0-3.13c.17-.81.12-1.32-.17-1.59l0-.06s.71.2.42,2.12.17,2.06.47,2S88.48,60.47,88.48,60.47Z"/><path id="_Trazado_89" data-name="&lt;Trazado&gt;" class="cls-7" d="M91.17,61.54a3.28,3.28,0,0,1-2.69-1.07l-.35-.82s1.69,1.15,2.89.91a2.61,2.61,0,0,0,1.81-1.72C92.85,59.82,92.3,61.31,91.17,61.54Z"/><path id="_Trazado_90" data-name="&lt;Trazado&gt;" d="M88.53,66.56s1.86-1.43,5.28-.1-1.45,9.4-1.26,12.07-5,4.14-6.59,1.72l0-1.68s1.59,2,3.51,1.46,1.95-2.34,2.26-3.9,2.19-6.37,2-7.88-5.31-.49-5.31-.49Z"/><path id="_Trazado_91" data-name="&lt;Trazado&gt;" d="M89.11,64.24s3.49-1.29,6.16.27,2.1,3.78,1.2,6.36a35,35,0,0,0-1.85,8.28c0,1.66-1.64,3.43-3.59,4A10.64,10.64,0,0,1,86.32,83l0,1.45S92.43,86,94.7,82.74s1.21-6.81,2.24-9.71,2.41-5.89,1.11-7.86a6.33,6.33,0,0,0-5.5-2.67,12,12,0,0,0-3,.32Z"/></g><g id="_Grupo_12" data-name="&lt;Grupo&gt;"><path id="_Trazado_92" data-name="&lt;Trazado&gt;" d="M104.84,71.43a10.48,10.48,0,0,0-2.75-3.28c-1.8-1.38-4.34.36-5,1.32s-.85,2.81-1.85,3.74-.56,3.15,1,3.15c0,0-.46,5.16-1.8,6.15a3.79,3.79,0,0,1-2.18,1.85S97,87.82,101,86.29l5.63,2.8a.77.77,0,0,0,1-.35l4.39-9a.76.76,0,0,0-.27-1l-4.15-2.64S105.86,72.42,104.84,71.43Z"/><path id="_Trazado_93" data-name="&lt;Trazado&gt;" class="cls-11" d="M111.07,79.28a10.92,10.92,0,0,1-1.27,2.64c-.6,1.06-1.92,4-2.69,5.52a3.44,3.44,0,0,1-.58,1,39.84,39.84,0,0,1-4.86-2.5c-.57-.42-.3-.63.1-1.83s1-2.17,1.44-2.25,2.39,1,2.59.84c0,0,0,0,0,0s-.42-.45-.88-.78-1-.79-.9-1c.25-.47,2.12-2.06,2.41-2.66a1.25,1.25,0,0,0,.16-.69h0c0-.14-.1-.18-.16-.1a18.05,18.05,0,0,1-1.73,2.08c-.65.64-1.36,1.13-1.89,1-1.26-.43-1.89-1.7-2.54-3.68a4.56,4.56,0,0,1,.13-3.43,3.25,3.25,0,0,1,.17-.33,2.58,2.58,0,0,0,.26-1.71c-.07-.11-.13,0-.18.17s-.13.64-.18.76-.58,1.5-1,.8a.43.43,0,0,1,0-.07c-.43-.75-1-.71-.8-.5a.42.42,0,0,0,.14.11,1.86,1.86,0,0,1,.67,1.08,4.73,4.73,0,0,1-.7,1.52,1.91,1.91,0,0,1-3.19.54,1.78,1.78,0,0,1-.43-.9A2.53,2.53,0,0,0,96,75c.58.05,1.19-.78,1.31-1.39s-.84-1.07-.84-1.07.22,0,.4-.79A5.93,5.93,0,0,1,97.87,70,5.05,5.05,0,0,1,99,68.88a.8.8,0,0,1,.82.06c.31.17.76.31.63.1s-.78-.39-.61-.45.32,0,.7.24.82.8.84.63a1,1,0,0,0-.52-.73c-.28-.15-.46-.21-.31-.21a2.42,2.42,0,0,1,1.08.41,22.89,22.89,0,0,1,2.51,2.72.32.32,0,0,0-.21.13c-.08.11.74.62,1.14,1.47s1.57,3.18,1.71,3.4S111,79.15,111.07,79.28Z"/><path id="_Trazado_94" data-name="&lt;Trazado&gt;" class="cls-11" d="M102,81.42a12.85,12.85,0,0,0-1.55,3.52c-.08,1.1-3,.9-4.66.14a5.48,5.48,0,0,1-2-1.37s2-1.67,2.18-3.43a13.16,13.16,0,0,1,.57-3.43c.2-.16.73.14,1.74-.57s1.13-1.14,1.13-1.14a9.94,9.94,0,0,0,0,1.36c.09,1.52.55,3.91,2.39,4.81Z"/><path id="_Trazado_95" data-name="&lt;Trazado&gt;" class="cls-9" d="M95,74.31a1.06,1.06,0,0,0,.9.24c.49-.12,1-.62.92-1a1.14,1.14,0,0,0-.56-.81c-.12,0-.8.67-1,.81S94.88,74,95,74.31Z"/><path id="_Trazado_96" data-name="&lt;Trazado&gt;" d="M94.88,67.41c-1.08-.34-3.15-.88-3.86-.64,0,0-1.56.17-1.06,2.3a2.39,2.39,0,0,0,.59,1.16,3.55,3.55,0,0,0-1.41,0s-1.55.17-1,2.3a2.34,2.34,0,0,0,.61,1.19c-.3.07-1.41.44-1,2.29a2.18,2.18,0,0,0,.93,1.44c-.36.16-.91.62-.62,1.88.43,1.82,2,1.38,3.19,2.09a1.6,1.6,0,0,0,2.56-.92,2,2,0,0,0-.43-1.79,2,2,0,0,0,1.08-1.32,2.39,2.39,0,0,0-.6-2.21,2.1,2.1,0,0,0,1-1.27,2.36,2.36,0,0,0-.5-2.08,1.79,1.79,0,0,0,2.37-1.35A2.7,2.7,0,0,0,94.88,67.41Z"/><path id="_Trazado_97" data-name="&lt;Trazado&gt;" class="cls-11" d="M95.87,70.56a1.81,1.81,0,0,1-1.21.87c-.38,0-.87-.32-.52-.36s.44-.51.24-.37-.72.31-1.76-.14a2.64,2.64,0,0,0-1.49-.32,4.33,4.33,0,0,1-.59-1.1,1,1,0,0,1-.05-.3c0-.52.07-1,.1-.76s.11.77.17.12.34-.8.34-.8a1.27,1.27,0,0,1,.93-.05,18,18,0,0,0,2.32.68c.4,0,1.13.65,1.27.86s-.44.87-.37,1a0,0,0,0,0,0,0c.25,0,.4-.83.56-.7A2.27,2.27,0,0,1,95.87,70.56Z"/><path id="_Trazado_98" data-name="&lt;Trazado&gt;" class="cls-11" d="M94.22,73a1.46,1.46,0,0,1-.73,1.36c-.51.17-.48-.33-1.75-.68a8.67,8.67,0,0,0-2.35-.31,1,1,0,0,1-.56-.78,2.82,2.82,0,0,1,0-.89.94.94,0,0,1,.55-.92c.48-.17.85.11,1.32.14a15.89,15.89,0,0,1,2,.49c.36.11.56.17.54.77s-.45,1-.22.82h0l.13-.09c.49-.38.3-1.24.41-1.15A4.23,4.23,0,0,1,94.22,73Z"/><path id="_Trazado_99" data-name="&lt;Trazado&gt;" class="cls-11" d="M93.88,76.7c-.07.51-.76.91-1,1s-1.11-.72-2-.84a20.37,20.37,0,0,0-2.19-.15.7.7,0,0,1-.23-.46h0a7.3,7.3,0,0,0,.05-.87.84.84,0,0,1,.8-1,6.78,6.78,0,0,1,2.14.2c.51.13,1.28.53,1.19.86a7.32,7.32,0,0,1-.75,1.2h0a0,0,0,0,1,0,0c0,.09.4,0,.81-.5s.06-.95.4-.8A1.76,1.76,0,0,1,93.88,76.7Z"/><path id="_Trazado_100" data-name="&lt;Trazado&gt;" class="cls-11" d="M93.09,80a1.15,1.15,0,0,1-1.11.81c-.45,0-1.86-1.36-2.11-1.38s.51.92.51.92L89,79.69s-.33-1.17-.07-1.49a3.68,3.68,0,0,1,2.22-.3,3.49,3.49,0,0,1,1,.53,2.79,2.79,0,0,1,.49.45C92.91,79.2,93.28,79.45,93.09,80Z"/><path id="_Trazado_101" data-name="&lt;Trazado&gt;" class="cls-12" d="M102,81.42a12.85,12.85,0,0,0-1.55,3.52c-.08,1.1-3,.9-4.66.14a5.48,5.48,0,0,1-2-1.37s2-1.67,2.18-3.43a13.16,13.16,0,0,1,.57-3.43c.2-.16.73.14,1.74-.57s1.13-1.14,1.13-1.14a9.94,9.94,0,0,0,0,1.36,2.3,2.3,0,0,1-1.09,1.09l-1,.41a12.69,12.69,0,0,1-.57,3.59c-.51,1,.4,1.74,1.66,2s2.65-1.84,3.38-2.29Z"/><path id="_Trazado_102" data-name="&lt;Trazado&gt;" class="cls-12" d="M107.46,83.88c.38.58-2.33-.33-3.37-.45s-1.41,1-.9,1.78,3.23,1.66,3.92,2.23a3.44,3.44,0,0,1-.58,1,39.84,39.84,0,0,1-4.86-2.5c-.57-.42-.3-.63.1-1.83s1-2.17,1.44-2.25,2.39,1,2.59.84A7.28,7.28,0,0,1,107.46,83.88Z"/><path id="_Trazado_103" data-name="&lt;Trazado&gt;" class="cls-12" d="M104.93,81.88c-.51-.38-1-.79-.9-1,.25-.47,2.12-2.06,2.41-2.66a1.25,1.25,0,0,0,.16-.69,1.43,1.43,0,0,1,0,1.69C105.9,80.12,104.93,81.36,104.93,81.88Z"/><path id="_Trazado_104" data-name="&lt;Trazado&gt;" class="cls-12" d="M93.09,80a1.15,1.15,0,0,1-1.11.81c-.45,0-1.86-1.36-2.11-1.38s.51.92.51.92L89,79.69l.62,0s-.46-.79-.21-.83.74.42,1.28.68,1.4-.65,1.46-1.09a2.79,2.79,0,0,1,.49.45C92.91,79.2,93.28,79.45,93.09,80Z"/><path id="_Trazado_105" data-name="&lt;Trazado&gt;" class="cls-12" d="M93.88,76.7c-.07.51-.76.91-1,1s-1.11-.72-2-.84a20.37,20.37,0,0,0-2.19-.15.7.7,0,0,1-.23-.46h0a3.21,3.21,0,0,1,1.82-.1c.85.22,1.41.41,1.61.45a0,0,0,0,1,0,0c0,.09.4,0,.81-.5s.06-.95.4-.8A1.76,1.76,0,0,1,93.88,76.7Z"/><path id="_Trazado_106" data-name="&lt;Trazado&gt;" class="cls-12" d="M94.22,73a1.46,1.46,0,0,1-.73,1.36c-.51.17-.48-.33-1.75-.68a8.67,8.67,0,0,0-2.35-.31,1,1,0,0,1-.56-.78v0a7.6,7.6,0,0,1,2.47.5A1.58,1.58,0,0,0,93,73h0l.13-.09c.49-.38.3-1.24.41-1.15A4.23,4.23,0,0,1,94.22,73Z"/><path id="_Trazado_107" data-name="&lt;Trazado&gt;" class="cls-12" d="M95.87,70.56a1.81,1.81,0,0,1-1.21.87c-.38,0-.87-.32-.52-.36s.44-.51.24-.37-.72.31-1.76-.14a2.64,2.64,0,0,0-1.49-.32,4.33,4.33,0,0,1-.59-1.1,4.78,4.78,0,0,1,.75.23c1.09.4,2.51,1.15,3,1a1.87,1.87,0,0,0,.92-.52,0,0,0,0,0,0,0c.25,0,.4-.83.56-.7A2.27,2.27,0,0,1,95.87,70.56Z"/><path id="_Trazado_108" data-name="&lt;Trazado&gt;" class="cls-12" d="M99.4,73.63a4.73,4.73,0,0,1-.7,1.52,1.91,1.91,0,0,1-3.19.54,2.58,2.58,0,0,0,1.7-.25A3.21,3.21,0,0,0,99,73.67c0-.34-.55-1.21-.45-1.22h0a.42.42,0,0,0,.14.11A1.86,1.86,0,0,1,99.4,73.63Z"/><path id="_Trazado_109" data-name="&lt;Trazado&gt;" class="cls-12" d="M99.43,73c.21-.13.48-1,.87-1.39a.48.48,0,0,1,.36-.17c-.07.25-.13.64-.18.76S99.9,73.71,99.43,73Z"/><path id="_Trazado_110" data-name="&lt;Trazado&gt;" class="cls-12" d="M104.71,79.48c-.65.64-1.36,1.13-1.89,1-1.26-.43-1.89-1.7-2.54-3.68a4.56,4.56,0,0,1,.13-3.43,4.14,4.14,0,0,0,.3,1.57c.78,2.08,3.42,4.71,4,4.6Z"/></g></g><g id="_Grupo_13" data-name="&lt;Grupo&gt;"><path id="_Trazado_111" data-name="&lt;Trazado&gt;" d="M59.22,46.69c-2,.32-.82,2.47.54,3,1.64.61,2.9,1.35,3.05.7S61.23,46.37,59.22,46.69Z"/><path id="_Trazado_112" data-name="&lt;Trazado&gt;" class="cls-3" d="M59.79,47.5c-1.19.2-.48,1.47.32,1.77,1,.36,1.72.79,1.81.41S61,47.31,59.79,47.5Z"/></g><g id="_Grupo_14" data-name="&lt;Grupo&gt;"><path id="_Trazado_113" data-name="&lt;Trazado&gt;" d="M91.84,47.63S93.73,43.4,96,44.06s1.68,3-.28,3.56-3.86,1-3.91.71A1.87,1.87,0,0,1,91.84,47.63Z"/><path id="_Trazado_114" data-name="&lt;Trazado&gt;" class="cls-3" d="M93,47.05s1.12-2.53,2.47-2.13,1,1.78-.17,2.12-2.31.62-2.34.42A1,1,0,0,1,93,47.05Z"/></g><g id="_Grupo_15" data-name="&lt;Grupo&gt;"><circle id="_Trazado_115" data-name="&lt;Trazado&gt;" cx="96.54" cy="57.43" r="1.3"/><circle id="_Trazado_116" data-name="&lt;Trazado&gt;" class="cls-3" cx="96.61" cy="57.33" r="0.79"/></g><g id="_Grupo_16" data-name="&lt;Grupo&gt;"><circle id="_Trazado_117" data-name="&lt;Trazado&gt;" cx="83.08" cy="39.85" r="1.9"/><path id="_Trazado_118" data-name="&lt;Trazado&gt;" class="cls-3" d="M84,39.59a1.11,1.11,0,0,1-.91,1.26,1.1,1.1,0,0,1-.35-2.17A1.1,1.1,0,0,1,84,39.59Z"/></g><g id="_Grupo_17" data-name="&lt;Grupo&gt;"><circle id="_Trazado_119" data-name="&lt;Trazado&gt;" cx="69.1" cy="41.28" r="1.46"/><path id="_Trazado_120" data-name="&lt;Trazado&gt;" class="cls-3" d="M70,41.05a.91.91,0,1,1-1-.76A.91.91,0,0,1,70,41.05Z"/></g></g></g><polygon class="cls-13" points="100.6 110.35 21.69 110.52 25.26 105.02 23.68 99.53 102.59 99.37 99.01 104.86 100.6 110.35"/><path class="cls-3" d="M35.1,108.22a4.46,4.46,0,0,1-1.9.34,2.48,2.48,0,0,1-2.14-.9,2.89,2.89,0,0,1-.38-2.38,4.41,4.41,0,0,1,1.46-2.58,3.9,3.9,0,0,1,2.65-1,4.18,4.18,0,0,1,1.54.24l-.28,1.44a2.4,2.4,0,0,0-1.39-.4,2.34,2.34,0,0,0-1.57.58,2.74,2.74,0,0,0-.87,1.59,2,2,0,0,0,.22,1.53,1.49,1.49,0,0,0,1.3.58,3.41,3.41,0,0,0,1.63-.42Z"/><path class="cls-3" d="M40.84,108.46H37l1.29-6.63H42l-.24,1.21H39.5l-.29,1.47h2.1l-.23,1.21H39l-.3,1.52h2.4Z"/><path class="cls-3" d="M48.07,108.48H46.41l-.66-1.7a2.32,2.32,0,0,0-.14-.35,1.28,1.28,0,0,0-.16-.26.75.75,0,0,0-.19-.17.41.41,0,0,0-.23,0h-.39l-.5,2.54H42.69l1.3-6.63h2.29q2.34,0,2,1.8a1.94,1.94,0,0,1-.22.64,2.31,2.31,0,0,1-.4.53,2.42,2.42,0,0,1-.53.41,2.85,2.85,0,0,1-.65.26v0a.73.73,0,0,1,.25.15,1.64,1.64,0,0,1,.21.24,2.38,2.38,0,0,1,.18.3c0,.11.11.21.15.32ZM45.22,103l-.36,1.85h.62a1.18,1.18,0,0,0,.8-.28,1.17,1.17,0,0,0,.43-.69q.16-.87-.84-.87Z"/><path class="cls-3" d="M56.13,101.86l-3.5,6.62H51l-.88-6.63h1.56l.43,4.61a3.62,3.62,0,0,1,0,.66h0a4.34,4.34,0,0,1,.27-.68l2.23-4.59Z"/><path class="cls-3" d="M60.27,108.5H56.43l1.3-6.62h3.69l-.23,1.22H58.93l-.28,1.48h2.09l-.23,1.21h-2.1l-.3,1.51h2.4Z"/><path class="cls-3" d="M66.77,108.27a4.67,4.67,0,0,1-1.9.35,2.5,2.5,0,0,1-2.15-.9,3,3,0,0,1-.38-2.39,4.4,4.4,0,0,1,1.46-2.57,3.94,3.94,0,0,1,2.66-1A4.07,4.07,0,0,1,68,102l-.28,1.44a2.31,2.31,0,0,0-1.39-.4,2.27,2.27,0,0,0-1.57.58,2.82,2.82,0,0,0-.87,1.59,1.9,1.9,0,0,0,.23,1.53,1.5,1.5,0,0,0,1.3.57,3.37,3.37,0,0,0,1.62-.42Z"/><path class="cls-3" d="M72.51,108.52H68.66l1.3-6.62h3.7l-.24,1.21H71.17l-.29,1.47H73l-.24,1.21h-2.1l-.29,1.51h2.4Z"/><path class="cls-3" d="M79.74,108.53H78.08l-.66-1.71c0-.13-.1-.24-.15-.34a2.18,2.18,0,0,0-.15-.27.7.7,0,0,0-.19-.16.48.48,0,0,0-.24-.06H76.3l-.5,2.53H74.36l1.3-6.62H78c1.55,0,2.21.61,2,1.81a2.33,2.33,0,0,1-.23.64,2.9,2.9,0,0,1-.39.53,2.7,2.7,0,0,1-.54.4,2.8,2.8,0,0,1-.64.27v0a.69.69,0,0,1,.24.15,1.21,1.21,0,0,1,.21.24,1.49,1.49,0,0,1,.18.3,2.89,2.89,0,0,1,.15.31ZM76.88,103l-.36,1.84h.63a1.18,1.18,0,0,0,.8-.27,1.14,1.14,0,0,0,.42-.7c.12-.58-.16-.87-.83-.87Z"/><path class="cls-3" d="M83.85,108.65a2.39,2.39,0,0,1-2.06-.93,2.91,2.91,0,0,1-.39-2.41,4.46,4.46,0,0,1,1.37-2.54,3.68,3.68,0,0,1,2.53-1,2.36,2.36,0,0,1,2,.93,3.06,3.06,0,0,1,.36,2.45,4.35,4.35,0,0,1-1.37,2.51A3.54,3.54,0,0,1,83.85,108.65ZM85,103.09a1.76,1.76,0,0,0-1.32.59,3.09,3.09,0,0,0-.75,1.55,2.23,2.23,0,0,0,.14,1.56,1.16,1.16,0,0,0,1.06.58,1.74,1.74,0,0,0,1.29-.56,2.83,2.83,0,0,0,.74-1.54,2.41,2.41,0,0,0-.1-1.6A1.1,1.1,0,0,0,85,103.09Z"/><path class="cls-3" d="M88.69,108.29l.28-1.48a2.09,2.09,0,0,0,.75.51,2.24,2.24,0,0,0,.89.17,1.77,1.77,0,0,0,.48,0,1.14,1.14,0,0,0,.37-.14.75.75,0,0,0,.25-.21.68.68,0,0,0,.12-.26.58.58,0,0,0,0-.35.9.9,0,0,0-.24-.28,2.38,2.38,0,0,0-.39-.25c-.16-.08-.32-.17-.5-.25a2.2,2.2,0,0,1-1-.79,1.62,1.62,0,0,1-.15-1.13,2.2,2.2,0,0,1,1-1.5,2.79,2.79,0,0,1,.87-.35,4.55,4.55,0,0,1,1-.11,5.57,5.57,0,0,1,.87.06,2.71,2.71,0,0,1,.68.2l-.27,1.38a1.77,1.77,0,0,0-.32-.21,1.92,1.92,0,0,0-.36-.14,2.34,2.34,0,0,0-.38-.09l-.37,0a2.16,2.16,0,0,0-.46.05,1.18,1.18,0,0,0-.36.14.61.61,0,0,0-.26.21.57.57,0,0,0-.13.27.6.6,0,0,0,0,.3.88.88,0,0,0,.2.25,2.35,2.35,0,0,0,.33.23l.46.23a3.61,3.61,0,0,1,.62.36,1.81,1.81,0,0,1,.45.42,1.29,1.29,0,0,1,.22.54,1.52,1.52,0,0,1,0,.7,2.41,2.41,0,0,1-.38.94,2.17,2.17,0,0,1-.68.6,2.77,2.77,0,0,1-.87.34,5.47,5.47,0,0,1-1,.1,5.9,5.9,0,0,1-1-.1A2.17,2.17,0,0,1,88.69,108.29Z"/><path class="cls-3" d="M97.67,105a1.26,1.26,0,1,1-1-1.46A1.26,1.26,0,0,1,97.67,105Z"/><path class="cls-3" d="M28.74,105.24a1.25,1.25,0,0,1-2.47-.44,1.25,1.25,0,1,1,2.47.44Z"/><path d="M30.92,26.07c-1.74,0-3.51-.88-2.38-3.74l2-5.1H27.16c-4,6.48-6.84,8.84-9.45,8.84-1.53,0-2.33-1.51-1.78-4.31a2.77,2.77,0,0,1,3-2.36,2,2,0,0,1,1.42.54,10,10,0,0,0-1.27,3.23l-.06.29c2.59-.94,6.42-4.82,13.85-20.17H32.3c-2.77,0-4.09,1.6-4.38,3.08a2.61,2.61,0,0,0,.26,1.82,3.23,3.23,0,0,1-1.37.32c-1.55,0-2.19-1.42-1.89-3,.39-2,2.29-4.25,5.88-4.25,4,0,7.46,1.42,10,.63a.77.77,0,0,1,.26.82A1.43,1.43,0,0,1,39.72,4H39.6l-6.74,16.8c-.72,1.83-.27,2.33.55,2.33a7.5,7.5,0,0,0,3.42-1.57.68.68,0,0,1,.37.76,1.42,1.42,0,0,1-.41.69C34.73,24.75,32.47,26.07,30.92,26.07ZM34.38,3.38c-2.33,4.94-4.34,8.87-6.14,12h3L36,3.57Z"/><path d="M43.47,13.08c1.61-1.86,3.38-3.16,5.12-3.16,1.24,0,2.45,1,1.92,3.25,1.65-1.89,3.43-3.25,5.2-3.25,1.37,0,3.17.95,1.66,4.63l-2.9,7.24c-.36.91,0,1.29.57,1.29a6.32,6.32,0,0,0,3.51-1.57.67.67,0,0,1,.37.75,1.43,1.43,0,0,1-.42.69c-1.75,1.67-4.07,3.12-6.11,3.12-1.52,0-3-.79-1.5-4.47l2.49-6.26c.44-1,.63-1.86-.37-1.86a4.46,4.46,0,0,0-2.93,1.45l-3.67,9.16a3.07,3.07,0,0,1-2.94,2,2.21,2.21,0,0,1-1.35-.41l4.14-10.32c.4-1,.63-1.86-.38-1.86a4.57,4.57,0,0,0-3.11,1.64l-3.61,9a3.07,3.07,0,0,1-2.93,2,2.24,2.24,0,0,1-1.36-.41l4.85-12.08c.22-.5.12-.79-.16-.79s-.35.13-.68.38a1.21,1.21,0,0,1,.34-1.73,6.67,6.67,0,0,1,3.7-1.52c1.1,0,1.63.54,1.13,1.73Z"/><path d="M66.11,21.51a6.32,6.32,0,0,1-3.51,1.57c-.79,0-1.16-.57-.46-2.33l3.63-9.1c.47-1.19,0-1.73-1.13-1.73a6.73,6.73,0,0,0-3.7,1.51,1.22,1.22,0,0,0-.34,1.74,1.34,1.34,0,0,1,.68-.38c.28,0,.34.28.16.78L58,22.32c-1.13,2.87.46,3.75,2,3.75,2,0,4.36-1.45,6.12-3.12a1.49,1.49,0,0,0,.41-.69A.67.67,0,0,0,66.11,21.51Z"/><path d="M65.52,4.52a2.09,2.09,0,1,0,2.3,1.85A2.09,2.09,0,0,0,65.52,4.52Z"/><path d="M76,25.88c-2.5,5.86-5.84,12.05-11.11,12.05-1.85,0-3.34-1.25-2.84-3.87.76-3.9,6.09-6.89,10.51-8.46.36-.79.73-1.58,1.15-2.46-1.59,1.73-3.38,2.93-5,2.93-3.16,0-3.17-3.27-2.78-5.29,1.07-5.51,5.58-11,9.81-11a3.61,3.61,0,0,1,2.9,1,3.27,3.27,0,0,1,2.28-.92,2.19,2.19,0,0,1,1.35.41l-5,12.47c-.17.44-.35.88-.52,1.29a28,28,0,0,0,4.88-2.74,1.05,1.05,0,0,1-.27,1.57A32.94,32.94,0,0,1,76,25.88ZM71.49,27.8c-3.62,1.39-6.88,3.74-7.28,5.85-.22,1.11.56,1.48,1,1.48C67.26,35.13,68.94,33,71.49,27.8Zm6.25-15.39a3.64,3.64,0,0,0-1.38-.25c-3.69,0-6,5-6.63,8.4-.3,1.57.26,2.27,1.2,2.27a5.51,5.51,0,0,0,3.46-2Z"/><path d="M91,9.79a3.16,3.16,0,0,1,3.29,1.86c-.2.72-.78,1.07-1.2.88a4.94,4.94,0,0,0-1.89-.34c-2.77,0-5.38,4.21-6,7.3-.54,2.77.17,3.84,1.23,3.84,1.8,0,4.68-3.06,4.61-6.46a2.53,2.53,0,0,1-1.33-.37c-.31-1.73.67-3.3,2.41-3.3a2.12,2.12,0,0,1,2.22,1.85,19.15,19.15,0,0,0,5.71-2.58c.32.25.14,1.17-.46,1.57a16.79,16.79,0,0,1-5.3,2.52c-1.1,4.75-6.16,9.5-9.79,9.5-3.13,0-4-2.61-3.39-5.56C82.06,15.75,86.41,9.79,91,9.79Z"/><path d="M93.93,21.91A3.38,3.38,0,0,1,97,19.49a1.38,1.38,0,0,1,1.13.44,3.8,3.8,0,0,0-1,2c-.29,1.45.53,2.08,1.51,2.08a3.15,3.15,0,0,0,2.89-2.52c.47-2.39-4.61-2.11-3.69-6.83A6,6,0,0,1,104,9.79c2.59,0,3.64,1,3.25,3.06-.35,1.76-1.52,2.64-2.63,2.58a2,2,0,0,1-1.14-.44,3.56,3.56,0,0,0,.85-1.7c.23-1.17-.31-1.7-1-1.7s-1.93.85-2.26,2.55c-.65,3.33,4.49,2.61,3.71,6.61-.59,3.05-2.8,5.31-7.27,5.31C94.16,26.06,93.18,24,93.93,21.91Z"/></g></g></svg>