<svg xmlns="http://www.w3.org/2000/svg" viewBox="0 0 769.01 84.14"><defs><style>.cls-1{fill:#fff;}.cls-2{fill:#b3b3b3;}</style></defs><title>Recurso 6</title><g id="Capa_2" data-name="Capa 2"><g id="JUEGO"><path class="cls-1" d="M80.3,76.39c-9.26,0-18.6-.32-25.68-7.18-5.55-5.38-10.36-11.55-15.34-17.5-2.24-2.67-4.59-5.42-7.8-6.5-5-1.7-4.78-3.14-.72-5.78C38,34.74,43.72,28.36,49,21.76c7.94-9.86,18-14,30.45-14C121.34,8,550.77,7.9,690,7.74c13.52,0,24.29,4.35,32.44,15.25,5.56,7.43,11.73,14.33,21.27,19.07-10.49,5.81-16.87,14.78-24.49,22.49-7.13,7.21-15.64,11.88-26.26,11.87C571.62,76.4,144,76.36,80.3,76.39Z"/><path class="cls-2" d="M769,38.73c-3.15,0-6.09.06-8.6.12-12.95.31-21.69-6.44-29.07-15.87-5.58-7.14-11.65-13.83-19.82-17.9C705,1.84,697.75.67,690.42.67,652.47.71,116.1.17,91.83.09c-11,0-22-.88-32.55,3.4-3.5,1.44-7.69,4.4-7.15,4.46-5.37,5.67-10.89,11.21-16.07,17-8,9-17.4,14-29.85,13.15C4.06,38,2,37.88,0,37.78v7.78c4.92,0,10.34.26,15.76.74,9,.8,15.67,6.56,21.59,13.51,8,9.36,15.6,19.48,28.83,22.41A62.63,62.63,0,0,0,80,83.5c35,0,464.19.34,610,.64,16.6,0,29-6.78,39.14-19.54,8.2-10.33,17.77-18.84,32.45-18.48,2.18.05,4.7.09,7.4.11ZM719.15,64.86c-7.14,7.2-15.65,11.86-26.27,11.85-121.29-.13-549-.58-612.61-.61-9.26,0-18.6-.33-25.67-7.2-5.55-5.38-10.35-11.56-15.33-17.51C37,48.72,34.68,46,31.48,44.88c-5-1.7-4.78-3.15-.71-5.78C38,34.42,43.73,28,49.05,21.45c8-9.85,18-14,30.46-13.92,41.86.2,471.29.52,610.47.49,13.52,0,24.28,4.38,32.43,15.28,5.56,7.44,11.72,14.34,21.25,19.1C733.16,48.19,726.78,57.16,719.15,64.86Z"/></g></g></svg>